<?xml version="1.0" encoding="utf-8" standalone="no"?>
<!DOCTYPE svg PUBLIC "-//W3C//DTD SVG 1.1//EN"
  "http://www.w3.org/Graphics/SVG/1.1/DTD/svg11.dtd">
<svg xmlns:xlink="http://www.w3.org/1999/xlink" width="576pt" height="432pt" viewBox="0 0 576 432" xmlns="http://www.w3.org/2000/svg" version="1.1">
 <metadata>
  <rdf:RDF xmlns:dc="http://purl.org/dc/elements/1.1/" xmlns:cc="http://creativecommons.org/ns#" xmlns:rdf="http://www.w3.org/1999/02/22-rdf-syntax-ns#">
   <cc:Work>
    <dc:type rdf:resource="http://purl.org/dc/dcmitype/StillImage"/>
    <dc:date>2024-05-13T19:15:35.391459</dc:date>
    <dc:format>image/svg+xml</dc:format>
    <dc:creator>
     <cc:Agent>
      <dc:title>Matplotlib v3.8.4, https://matplotlib.org/</dc:title>
     </cc:Agent>
    </dc:creator>
   </cc:Work>
  </rdf:RDF>
 </metadata>
 <defs>
  <style type="text/css">*{stroke-linejoin: round; stroke-linecap: butt}</style>
 </defs>
 <g id="figure_1">
  <g id="patch_1">
   <path d="M 0 432 
L 576 432 
L 576 0 
L 0 0 
z
" style="fill: #ffffff"/>
  </g>
  <g id="axes_1">
   <g id="patch_2">
    <path d="M 72 384.48 
L 518.4 384.48 
L 518.4 51.84 
L 72 51.84 
z
" style="fill: #ffffff"/>
   </g>
   <g id="PolyCollection_1">
    <defs>
     <path id="m0094fcc109" d="M 92.290909 -52.401652 
L 92.290909 -48.947896 
L 193.745455 -82.939228 
L 295.2 -129.646568 
L 396.654545 -200.444143 
L 498.109091 -302.844172 
L 498.109091 -343.80914 
L 498.109091 -343.80914 
L 396.654545 -222.298842 
L 295.2 -144.364156 
L 193.745455 -93.679494 
L 92.290909 -52.401652 
z
" style="stroke: #1f77b4; stroke-opacity: 0.2"/>
    </defs>
    <g clip-path="url(#p07ee99c562)">
     <use xlink:href="#m0094fcc109" x="0" y="432" style="fill: #1f77b4; fill-opacity: 0.2; stroke: #1f77b4; stroke-opacity: 0.2"/>
    </g>
   </g>
   <g id="PolyCollection_2">
    <defs>
     <path id="m2d05395b5a" d="M 92.290909 -52.741402 
L 92.290909 -48.385598 
L 193.745455 -78.891514 
L 295.2 -118.40629 
L 396.654545 -189.444907 
L 498.109091 -277.289527 
L 498.109091 -296.44551 
L 498.109091 -296.44551 
L 396.654545 -204.921854 
L 295.2 -137.86721 
L 193.745455 -82.891523 
L 92.290909 -52.741402 
z
" style="stroke: #ff7f0e; stroke-opacity: 0.2"/>
    </defs>
    <g clip-path="url(#p07ee99c562)">
     <use xlink:href="#m2d05395b5a" x="0" y="432" style="fill: #ff7f0e; fill-opacity: 0.2; stroke: #ff7f0e; stroke-opacity: 0.2"/>
    </g>
   </g>
   <g id="PolyCollection_3">
    <defs>
     <path id="m587b6c80f5" d="M 92.290909 -58.069529 
L 92.290909 -45.231874 
L 193.745455 -74.672132 
L 295.2 -108.513201 
L 396.654545 -158.951417 
L 498.109091 -192.226898 
L 498.109091 -223.673401 
L 498.109091 -223.673401 
L 396.654545 -177.273613 
L 295.2 -124.590451 
L 193.745455 -90.527453 
L 92.290909 -58.069529 
z
" style="stroke: #2ca02c; stroke-opacity: 0.2"/>
    </defs>
    <g clip-path="url(#p07ee99c562)">
     <use xlink:href="#m587b6c80f5" x="0" y="432" style="fill: #2ca02c; fill-opacity: 0.2; stroke: #2ca02c; stroke-opacity: 0.2"/>
    </g>
   </g>
   <g id="PolyCollection_4">
    <defs>
     <path id="m437c828486" d="M 92.290909 -61.529087 
L 92.290909 -43.554587 
L 193.745455 -69.305 
L 295.2 -82.992017 
L 396.654545 -95.622783 
L 498.109091 -72.070288 
L 498.109091 -93.277931 
L 498.109091 -93.277931 
L 396.654545 -105.713805 
L 295.2 -88.347956 
L 193.745455 -80.01102 
L 92.290909 -61.529087 
z
" style="stroke: #d62728; stroke-opacity: 0.2"/>
    </defs>
    <g clip-path="url(#p07ee99c562)">
     <use xlink:href="#m437c828486" x="0" y="432" style="fill: #d62728; fill-opacity: 0.2; stroke: #d62728; stroke-opacity: 0.2"/>
    </g>
   </g>
   <g id="PolyCollection_5">
    <defs>
     <path id="m199cfd8d45" d="M 92.290909 -53.221915 
L 92.290909 -48.3037 
L 193.745455 -50.305161 
L 295.2 -53.093072 
L 396.654545 -53.605238 
L 498.109091 -46.057774 
L 498.109091 -47.99935 
L 498.109091 -47.99935 
L 396.654545 -57.073656 
L 295.2 -55.118376 
L 193.745455 -51.130123 
L 92.290909 -53.221915 
z
" style="stroke: #9467bd; stroke-opacity: 0.2"/>
    </defs>
    <g clip-path="url(#p07ee99c562)">
     <use xlink:href="#m199cfd8d45" x="0" y="432" style="fill: #9467bd; fill-opacity: 0.2; stroke: #9467bd; stroke-opacity: 0.2"/>
    </g>
   </g>
   <g id="matplotlib.axis_1">
    <g id="xtick_1">
     <g id="line2d_1">
      <path d="M 92.290909 384.48 
L 92.290909 51.84 
" clip-path="url(#p07ee99c562)" style="fill: none; stroke: #b0b0b0; stroke-width: 0.8; stroke-linecap: square"/>
     </g>
     <g id="line2d_2">
      <defs>
       <path id="m488329c666" d="M 0 0 
L 0 3.5 
" style="stroke: #000000; stroke-width: 0.8"/>
      </defs>
      <g>
       <use xlink:href="#m488329c666" x="92.290909" y="384.48" style="stroke: #000000; stroke-width: 0.8"/>
      </g>
     </g>
     <g id="text_1">
      <!-- $\mathdefault{2^{0}}$ -->
      <g transform="translate(86.690909 399.078438) scale(0.1 -0.1)">
       <defs>
        <path id="DejaVuSans-32" d="M 1228 531 
L 3431 531 
L 3431 0 
L 469 0 
L 469 531 
Q 828 903 1448 1529 
Q 2069 2156 2228 2338 
Q 2531 2678 2651 2914 
Q 2772 3150 2772 3378 
Q 2772 3750 2511 3984 
Q 2250 4219 1831 4219 
Q 1534 4219 1204 4116 
Q 875 4013 500 3803 
L 500 4441 
Q 881 4594 1212 4672 
Q 1544 4750 1819 4750 
Q 2544 4750 2975 4387 
Q 3406 4025 3406 3419 
Q 3406 3131 3298 2873 
Q 3191 2616 2906 2266 
Q 2828 2175 2409 1742 
Q 1991 1309 1228 531 
z
" transform="scale(0.015625)"/>
        <path id="DejaVuSans-30" d="M 2034 4250 
Q 1547 4250 1301 3770 
Q 1056 3291 1056 2328 
Q 1056 1369 1301 889 
Q 1547 409 2034 409 
Q 2525 409 2770 889 
Q 3016 1369 3016 2328 
Q 3016 3291 2770 3770 
Q 2525 4250 2034 4250 
z
M 2034 4750 
Q 2819 4750 3233 4129 
Q 3647 3509 3647 2328 
Q 3647 1150 3233 529 
Q 2819 -91 2034 -91 
Q 1250 -91 836 529 
Q 422 1150 422 2328 
Q 422 3509 836 4129 
Q 1250 4750 2034 4750 
z
" transform="scale(0.015625)"/>
       </defs>
       <use xlink:href="#DejaVuSans-32" transform="translate(0 0.765625)"/>
       <use xlink:href="#DejaVuSans-30" transform="translate(64.580078 39.046875) scale(0.7)"/>
      </g>
     </g>
    </g>
    <g id="xtick_2">
     <g id="line2d_3">
      <path d="M 193.745455 384.48 
L 193.745455 51.84 
" clip-path="url(#p07ee99c562)" style="fill: none; stroke: #b0b0b0; stroke-width: 0.8; stroke-linecap: square"/>
     </g>
     <g id="line2d_4">
      <g>
       <use xlink:href="#m488329c666" x="193.745455" y="384.48" style="stroke: #000000; stroke-width: 0.8"/>
      </g>
     </g>
     <g id="text_2">
      <!-- $\mathdefault{2^{1}}$ -->
      <g transform="translate(188.145455 399.078438) scale(0.1 -0.1)">
       <defs>
        <path id="DejaVuSans-31" d="M 794 531 
L 1825 531 
L 1825 4091 
L 703 3866 
L 703 4441 
L 1819 4666 
L 2450 4666 
L 2450 531 
L 3481 531 
L 3481 0 
L 794 0 
L 794 531 
z
" transform="scale(0.015625)"/>
       </defs>
       <use xlink:href="#DejaVuSans-32" transform="translate(0 0.684375)"/>
       <use xlink:href="#DejaVuSans-31" transform="translate(64.580078 38.965625) scale(0.7)"/>
      </g>
     </g>
    </g>
    <g id="xtick_3">
     <g id="line2d_5">
      <path d="M 295.2 384.48 
L 295.2 51.84 
" clip-path="url(#p07ee99c562)" style="fill: none; stroke: #b0b0b0; stroke-width: 0.8; stroke-linecap: square"/>
     </g>
     <g id="line2d_6">
      <g>
       <use xlink:href="#m488329c666" x="295.2" y="384.48" style="stroke: #000000; stroke-width: 0.8"/>
      </g>
     </g>
     <g id="text_3">
      <!-- $\mathdefault{2^{2}}$ -->
      <g transform="translate(289.6 399.078438) scale(0.1 -0.1)">
       <use xlink:href="#DejaVuSans-32" transform="translate(0 0.765625)"/>
       <use xlink:href="#DejaVuSans-32" transform="translate(64.580078 39.046875) scale(0.7)"/>
      </g>
     </g>
    </g>
    <g id="xtick_4">
     <g id="line2d_7">
      <path d="M 396.654545 384.48 
L 396.654545 51.84 
" clip-path="url(#p07ee99c562)" style="fill: none; stroke: #b0b0b0; stroke-width: 0.8; stroke-linecap: square"/>
     </g>
     <g id="line2d_8">
      <g>
       <use xlink:href="#m488329c666" x="396.654545" y="384.48" style="stroke: #000000; stroke-width: 0.8"/>
      </g>
     </g>
     <g id="text_4">
      <!-- $\mathdefault{2^{3}}$ -->
      <g transform="translate(391.054545 399.078438) scale(0.1 -0.1)">
       <defs>
        <path id="DejaVuSans-33" d="M 2597 2516 
Q 3050 2419 3304 2112 
Q 3559 1806 3559 1356 
Q 3559 666 3084 287 
Q 2609 -91 1734 -91 
Q 1441 -91 1130 -33 
Q 819 25 488 141 
L 488 750 
Q 750 597 1062 519 
Q 1375 441 1716 441 
Q 2309 441 2620 675 
Q 2931 909 2931 1356 
Q 2931 1769 2642 2001 
Q 2353 2234 1838 2234 
L 1294 2234 
L 1294 2753 
L 1863 2753 
Q 2328 2753 2575 2939 
Q 2822 3125 2822 3475 
Q 2822 3834 2567 4026 
Q 2313 4219 1838 4219 
Q 1578 4219 1281 4162 
Q 984 4106 628 3988 
L 628 4550 
Q 988 4650 1302 4700 
Q 1616 4750 1894 4750 
Q 2613 4750 3031 4423 
Q 3450 4097 3450 3541 
Q 3450 3153 3228 2886 
Q 3006 2619 2597 2516 
z
" transform="scale(0.015625)"/>
       </defs>
       <use xlink:href="#DejaVuSans-32" transform="translate(0 0.765625)"/>
       <use xlink:href="#DejaVuSans-33" transform="translate(64.580078 39.046875) scale(0.7)"/>
      </g>
     </g>
    </g>
    <g id="xtick_5">
     <g id="line2d_9">
      <path d="M 498.109091 384.48 
L 498.109091 51.84 
" clip-path="url(#p07ee99c562)" style="fill: none; stroke: #b0b0b0; stroke-width: 0.8; stroke-linecap: square"/>
     </g>
     <g id="line2d_10">
      <g>
       <use xlink:href="#m488329c666" x="498.109091" y="384.48" style="stroke: #000000; stroke-width: 0.8"/>
      </g>
     </g>
     <g id="text_5">
      <!-- $\mathdefault{2^{4}}$ -->
      <g transform="translate(492.509091 399.078438) scale(0.1 -0.1)">
       <defs>
        <path id="DejaVuSans-34" d="M 2419 4116 
L 825 1625 
L 2419 1625 
L 2419 4116 
z
M 2253 4666 
L 3047 4666 
L 3047 1625 
L 3713 1625 
L 3713 1100 
L 3047 1100 
L 3047 0 
L 2419 0 
L 2419 1100 
L 313 1100 
L 313 1709 
L 2253 4666 
z
" transform="scale(0.015625)"/>
       </defs>
       <use xlink:href="#DejaVuSans-32" transform="translate(0 0.684375)"/>
       <use xlink:href="#DejaVuSans-34" transform="translate(64.580078 38.965625) scale(0.7)"/>
      </g>
     </g>
    </g>
    <g id="text_6">
     <!-- Number of OpenMP threads -->
     <g transform="translate(225.851562 412.756563) scale(0.1 -0.1)">
      <defs>
       <path id="DejaVuSans-4e" d="M 628 4666 
L 1478 4666 
L 3547 763 
L 3547 4666 
L 4159 4666 
L 4159 0 
L 3309 0 
L 1241 3903 
L 1241 0 
L 628 0 
L 628 4666 
z
" transform="scale(0.015625)"/>
       <path id="DejaVuSans-75" d="M 544 1381 
L 544 3500 
L 1119 3500 
L 1119 1403 
Q 1119 906 1312 657 
Q 1506 409 1894 409 
Q 2359 409 2629 706 
Q 2900 1003 2900 1516 
L 2900 3500 
L 3475 3500 
L 3475 0 
L 2900 0 
L 2900 538 
Q 2691 219 2414 64 
Q 2138 -91 1772 -91 
Q 1169 -91 856 284 
Q 544 659 544 1381 
z
M 1991 3584 
L 1991 3584 
z
" transform="scale(0.015625)"/>
       <path id="DejaVuSans-6d" d="M 3328 2828 
Q 3544 3216 3844 3400 
Q 4144 3584 4550 3584 
Q 5097 3584 5394 3201 
Q 5691 2819 5691 2113 
L 5691 0 
L 5113 0 
L 5113 2094 
Q 5113 2597 4934 2840 
Q 4756 3084 4391 3084 
Q 3944 3084 3684 2787 
Q 3425 2491 3425 1978 
L 3425 0 
L 2847 0 
L 2847 2094 
Q 2847 2600 2669 2842 
Q 2491 3084 2119 3084 
Q 1678 3084 1418 2786 
Q 1159 2488 1159 1978 
L 1159 0 
L 581 0 
L 581 3500 
L 1159 3500 
L 1159 2956 
Q 1356 3278 1631 3431 
Q 1906 3584 2284 3584 
Q 2666 3584 2933 3390 
Q 3200 3197 3328 2828 
z
" transform="scale(0.015625)"/>
       <path id="DejaVuSans-62" d="M 3116 1747 
Q 3116 2381 2855 2742 
Q 2594 3103 2138 3103 
Q 1681 3103 1420 2742 
Q 1159 2381 1159 1747 
Q 1159 1113 1420 752 
Q 1681 391 2138 391 
Q 2594 391 2855 752 
Q 3116 1113 3116 1747 
z
M 1159 2969 
Q 1341 3281 1617 3432 
Q 1894 3584 2278 3584 
Q 2916 3584 3314 3078 
Q 3713 2572 3713 1747 
Q 3713 922 3314 415 
Q 2916 -91 2278 -91 
Q 1894 -91 1617 61 
Q 1341 213 1159 525 
L 1159 0 
L 581 0 
L 581 4863 
L 1159 4863 
L 1159 2969 
z
" transform="scale(0.015625)"/>
       <path id="DejaVuSans-65" d="M 3597 1894 
L 3597 1613 
L 953 1613 
Q 991 1019 1311 708 
Q 1631 397 2203 397 
Q 2534 397 2845 478 
Q 3156 559 3463 722 
L 3463 178 
Q 3153 47 2828 -22 
Q 2503 -91 2169 -91 
Q 1331 -91 842 396 
Q 353 884 353 1716 
Q 353 2575 817 3079 
Q 1281 3584 2069 3584 
Q 2775 3584 3186 3129 
Q 3597 2675 3597 1894 
z
M 3022 2063 
Q 3016 2534 2758 2815 
Q 2500 3097 2075 3097 
Q 1594 3097 1305 2825 
Q 1016 2553 972 2059 
L 3022 2063 
z
" transform="scale(0.015625)"/>
       <path id="DejaVuSans-72" d="M 2631 2963 
Q 2534 3019 2420 3045 
Q 2306 3072 2169 3072 
Q 1681 3072 1420 2755 
Q 1159 2438 1159 1844 
L 1159 0 
L 581 0 
L 581 3500 
L 1159 3500 
L 1159 2956 
Q 1341 3275 1631 3429 
Q 1922 3584 2338 3584 
Q 2397 3584 2469 3576 
Q 2541 3569 2628 3553 
L 2631 2963 
z
" transform="scale(0.015625)"/>
       <path id="DejaVuSans-20" transform="scale(0.015625)"/>
       <path id="DejaVuSans-6f" d="M 1959 3097 
Q 1497 3097 1228 2736 
Q 959 2375 959 1747 
Q 959 1119 1226 758 
Q 1494 397 1959 397 
Q 2419 397 2687 759 
Q 2956 1122 2956 1747 
Q 2956 2369 2687 2733 
Q 2419 3097 1959 3097 
z
M 1959 3584 
Q 2709 3584 3137 3096 
Q 3566 2609 3566 1747 
Q 3566 888 3137 398 
Q 2709 -91 1959 -91 
Q 1206 -91 779 398 
Q 353 888 353 1747 
Q 353 2609 779 3096 
Q 1206 3584 1959 3584 
z
" transform="scale(0.015625)"/>
       <path id="DejaVuSans-66" d="M 2375 4863 
L 2375 4384 
L 1825 4384 
Q 1516 4384 1395 4259 
Q 1275 4134 1275 3809 
L 1275 3500 
L 2222 3500 
L 2222 3053 
L 1275 3053 
L 1275 0 
L 697 0 
L 697 3053 
L 147 3053 
L 147 3500 
L 697 3500 
L 697 3744 
Q 697 4328 969 4595 
Q 1241 4863 1831 4863 
L 2375 4863 
z
" transform="scale(0.015625)"/>
       <path id="DejaVuSans-4f" d="M 2522 4238 
Q 1834 4238 1429 3725 
Q 1025 3213 1025 2328 
Q 1025 1447 1429 934 
Q 1834 422 2522 422 
Q 3209 422 3611 934 
Q 4013 1447 4013 2328 
Q 4013 3213 3611 3725 
Q 3209 4238 2522 4238 
z
M 2522 4750 
Q 3503 4750 4090 4092 
Q 4678 3434 4678 2328 
Q 4678 1225 4090 567 
Q 3503 -91 2522 -91 
Q 1538 -91 948 565 
Q 359 1222 359 2328 
Q 359 3434 948 4092 
Q 1538 4750 2522 4750 
z
" transform="scale(0.015625)"/>
       <path id="DejaVuSans-70" d="M 1159 525 
L 1159 -1331 
L 581 -1331 
L 581 3500 
L 1159 3500 
L 1159 2969 
Q 1341 3281 1617 3432 
Q 1894 3584 2278 3584 
Q 2916 3584 3314 3078 
Q 3713 2572 3713 1747 
Q 3713 922 3314 415 
Q 2916 -91 2278 -91 
Q 1894 -91 1617 61 
Q 1341 213 1159 525 
z
M 3116 1747 
Q 3116 2381 2855 2742 
Q 2594 3103 2138 3103 
Q 1681 3103 1420 2742 
Q 1159 2381 1159 1747 
Q 1159 1113 1420 752 
Q 1681 391 2138 391 
Q 2594 391 2855 752 
Q 3116 1113 3116 1747 
z
" transform="scale(0.015625)"/>
       <path id="DejaVuSans-6e" d="M 3513 2113 
L 3513 0 
L 2938 0 
L 2938 2094 
Q 2938 2591 2744 2837 
Q 2550 3084 2163 3084 
Q 1697 3084 1428 2787 
Q 1159 2491 1159 1978 
L 1159 0 
L 581 0 
L 581 3500 
L 1159 3500 
L 1159 2956 
Q 1366 3272 1645 3428 
Q 1925 3584 2291 3584 
Q 2894 3584 3203 3211 
Q 3513 2838 3513 2113 
z
" transform="scale(0.015625)"/>
       <path id="DejaVuSans-4d" d="M 628 4666 
L 1569 4666 
L 2759 1491 
L 3956 4666 
L 4897 4666 
L 4897 0 
L 4281 0 
L 4281 4097 
L 3078 897 
L 2444 897 
L 1241 4097 
L 1241 0 
L 628 0 
L 628 4666 
z
" transform="scale(0.015625)"/>
       <path id="DejaVuSans-50" d="M 1259 4147 
L 1259 2394 
L 2053 2394 
Q 2494 2394 2734 2622 
Q 2975 2850 2975 3272 
Q 2975 3691 2734 3919 
Q 2494 4147 2053 4147 
L 1259 4147 
z
M 628 4666 
L 2053 4666 
Q 2838 4666 3239 4311 
Q 3641 3956 3641 3272 
Q 3641 2581 3239 2228 
Q 2838 1875 2053 1875 
L 1259 1875 
L 1259 0 
L 628 0 
L 628 4666 
z
" transform="scale(0.015625)"/>
       <path id="DejaVuSans-74" d="M 1172 4494 
L 1172 3500 
L 2356 3500 
L 2356 3053 
L 1172 3053 
L 1172 1153 
Q 1172 725 1289 603 
Q 1406 481 1766 481 
L 2356 481 
L 2356 0 
L 1766 0 
Q 1100 0 847 248 
Q 594 497 594 1153 
L 594 3053 
L 172 3053 
L 172 3500 
L 594 3500 
L 594 4494 
L 1172 4494 
z
" transform="scale(0.015625)"/>
       <path id="DejaVuSans-68" d="M 3513 2113 
L 3513 0 
L 2938 0 
L 2938 2094 
Q 2938 2591 2744 2837 
Q 2550 3084 2163 3084 
Q 1697 3084 1428 2787 
Q 1159 2491 1159 1978 
L 1159 0 
L 581 0 
L 581 4863 
L 1159 4863 
L 1159 2956 
Q 1366 3272 1645 3428 
Q 1925 3584 2291 3584 
Q 2894 3584 3203 3211 
Q 3513 2838 3513 2113 
z
" transform="scale(0.015625)"/>
       <path id="DejaVuSans-61" d="M 2194 1759 
Q 1497 1759 1228 1600 
Q 959 1441 959 1056 
Q 959 750 1161 570 
Q 1363 391 1709 391 
Q 2188 391 2477 730 
Q 2766 1069 2766 1631 
L 2766 1759 
L 2194 1759 
z
M 3341 1997 
L 3341 0 
L 2766 0 
L 2766 531 
Q 2569 213 2275 61 
Q 1981 -91 1556 -91 
Q 1019 -91 701 211 
Q 384 513 384 1019 
Q 384 1609 779 1909 
Q 1175 2209 1959 2209 
L 2766 2209 
L 2766 2266 
Q 2766 2663 2505 2880 
Q 2244 3097 1772 3097 
Q 1472 3097 1187 3025 
Q 903 2953 641 2809 
L 641 3341 
Q 956 3463 1253 3523 
Q 1550 3584 1831 3584 
Q 2591 3584 2966 3190 
Q 3341 2797 3341 1997 
z
" transform="scale(0.015625)"/>
       <path id="DejaVuSans-64" d="M 2906 2969 
L 2906 4863 
L 3481 4863 
L 3481 0 
L 2906 0 
L 2906 525 
Q 2725 213 2448 61 
Q 2172 -91 1784 -91 
Q 1150 -91 751 415 
Q 353 922 353 1747 
Q 353 2572 751 3078 
Q 1150 3584 1784 3584 
Q 2172 3584 2448 3432 
Q 2725 3281 2906 2969 
z
M 947 1747 
Q 947 1113 1208 752 
Q 1469 391 1925 391 
Q 2381 391 2643 752 
Q 2906 1113 2906 1747 
Q 2906 2381 2643 2742 
Q 2381 3103 1925 3103 
Q 1469 3103 1208 2742 
Q 947 2381 947 1747 
z
" transform="scale(0.015625)"/>
       <path id="DejaVuSans-73" d="M 2834 3397 
L 2834 2853 
Q 2591 2978 2328 3040 
Q 2066 3103 1784 3103 
Q 1356 3103 1142 2972 
Q 928 2841 928 2578 
Q 928 2378 1081 2264 
Q 1234 2150 1697 2047 
L 1894 2003 
Q 2506 1872 2764 1633 
Q 3022 1394 3022 966 
Q 3022 478 2636 193 
Q 2250 -91 1575 -91 
Q 1294 -91 989 -36 
Q 684 19 347 128 
L 347 722 
Q 666 556 975 473 
Q 1284 391 1588 391 
Q 1994 391 2212 530 
Q 2431 669 2431 922 
Q 2431 1156 2273 1281 
Q 2116 1406 1581 1522 
L 1381 1569 
Q 847 1681 609 1914 
Q 372 2147 372 2553 
Q 372 3047 722 3315 
Q 1072 3584 1716 3584 
Q 2034 3584 2315 3537 
Q 2597 3491 2834 3397 
z
" transform="scale(0.015625)"/>
      </defs>
      <use xlink:href="#DejaVuSans-4e"/>
      <use xlink:href="#DejaVuSans-75" x="74.804688"/>
      <use xlink:href="#DejaVuSans-6d" x="138.183594"/>
      <use xlink:href="#DejaVuSans-62" x="235.595703"/>
      <use xlink:href="#DejaVuSans-65" x="299.072266"/>
      <use xlink:href="#DejaVuSans-72" x="360.595703"/>
      <use xlink:href="#DejaVuSans-20" x="401.708984"/>
      <use xlink:href="#DejaVuSans-6f" x="433.496094"/>
      <use xlink:href="#DejaVuSans-66" x="494.677734"/>
      <use xlink:href="#DejaVuSans-20" x="529.882812"/>
      <use xlink:href="#DejaVuSans-4f" x="561.669922"/>
      <use xlink:href="#DejaVuSans-70" x="640.380859"/>
      <use xlink:href="#DejaVuSans-65" x="703.857422"/>
      <use xlink:href="#DejaVuSans-6e" x="765.380859"/>
      <use xlink:href="#DejaVuSans-4d" x="828.759766"/>
      <use xlink:href="#DejaVuSans-50" x="915.039062"/>
      <use xlink:href="#DejaVuSans-20" x="975.341797"/>
      <use xlink:href="#DejaVuSans-74" x="1007.128906"/>
      <use xlink:href="#DejaVuSans-68" x="1046.337891"/>
      <use xlink:href="#DejaVuSans-72" x="1109.716797"/>
      <use xlink:href="#DejaVuSans-65" x="1148.580078"/>
      <use xlink:href="#DejaVuSans-61" x="1210.103516"/>
      <use xlink:href="#DejaVuSans-64" x="1271.382812"/>
      <use xlink:href="#DejaVuSans-73" x="1334.859375"/>
     </g>
    </g>
   </g>
   <g id="matplotlib.axis_2">
    <g id="ytick_1">
     <g id="line2d_11">
      <path d="M 72 350.990037 
L 518.4 350.990037 
" clip-path="url(#p07ee99c562)" style="fill: none; stroke: #b0b0b0; stroke-width: 0.8; stroke-linecap: square"/>
     </g>
     <g id="line2d_12">
      <defs>
       <path id="me200291a40" d="M 0 0 
L -3.5 0 
" style="stroke: #000000; stroke-width: 0.8"/>
      </defs>
      <g>
       <use xlink:href="#me200291a40" x="72" y="350.990037" style="stroke: #000000; stroke-width: 0.8"/>
      </g>
     </g>
     <g id="text_7">
      <!-- 2 -->
      <g transform="translate(58.6375 354.789256) scale(0.1 -0.1)">
       <use xlink:href="#DejaVuSans-32"/>
      </g>
     </g>
    </g>
    <g id="ytick_2">
     <g id="line2d_13">
      <path d="M 72 290.099195 
L 518.4 290.099195 
" clip-path="url(#p07ee99c562)" style="fill: none; stroke: #b0b0b0; stroke-width: 0.8; stroke-linecap: square"/>
     </g>
     <g id="line2d_14">
      <g>
       <use xlink:href="#me200291a40" x="72" y="290.099195" style="stroke: #000000; stroke-width: 0.8"/>
      </g>
     </g>
     <g id="text_8">
      <!-- 4 -->
      <g transform="translate(58.6375 293.898414) scale(0.1 -0.1)">
       <use xlink:href="#DejaVuSans-34"/>
      </g>
     </g>
    </g>
    <g id="ytick_3">
     <g id="line2d_15">
      <path d="M 72 229.208353 
L 518.4 229.208353 
" clip-path="url(#p07ee99c562)" style="fill: none; stroke: #b0b0b0; stroke-width: 0.8; stroke-linecap: square"/>
     </g>
     <g id="line2d_16">
      <g>
       <use xlink:href="#me200291a40" x="72" y="229.208353" style="stroke: #000000; stroke-width: 0.8"/>
      </g>
     </g>
     <g id="text_9">
      <!-- 6 -->
      <g transform="translate(58.6375 233.007572) scale(0.1 -0.1)">
       <defs>
        <path id="DejaVuSans-36" d="M 2113 2584 
Q 1688 2584 1439 2293 
Q 1191 2003 1191 1497 
Q 1191 994 1439 701 
Q 1688 409 2113 409 
Q 2538 409 2786 701 
Q 3034 994 3034 1497 
Q 3034 2003 2786 2293 
Q 2538 2584 2113 2584 
z
M 3366 4563 
L 3366 3988 
Q 3128 4100 2886 4159 
Q 2644 4219 2406 4219 
Q 1781 4219 1451 3797 
Q 1122 3375 1075 2522 
Q 1259 2794 1537 2939 
Q 1816 3084 2150 3084 
Q 2853 3084 3261 2657 
Q 3669 2231 3669 1497 
Q 3669 778 3244 343 
Q 2819 -91 2113 -91 
Q 1303 -91 875 529 
Q 447 1150 447 2328 
Q 447 3434 972 4092 
Q 1497 4750 2381 4750 
Q 2619 4750 2861 4703 
Q 3103 4656 3366 4563 
z
" transform="scale(0.015625)"/>
       </defs>
       <use xlink:href="#DejaVuSans-36"/>
      </g>
     </g>
    </g>
    <g id="ytick_4">
     <g id="line2d_17">
      <path d="M 72 168.317512 
L 518.4 168.317512 
" clip-path="url(#p07ee99c562)" style="fill: none; stroke: #b0b0b0; stroke-width: 0.8; stroke-linecap: square"/>
     </g>
     <g id="line2d_18">
      <g>
       <use xlink:href="#me200291a40" x="72" y="168.317512" style="stroke: #000000; stroke-width: 0.8"/>
      </g>
     </g>
     <g id="text_10">
      <!-- 8 -->
      <g transform="translate(58.6375 172.11673) scale(0.1 -0.1)">
       <defs>
        <path id="DejaVuSans-38" d="M 2034 2216 
Q 1584 2216 1326 1975 
Q 1069 1734 1069 1313 
Q 1069 891 1326 650 
Q 1584 409 2034 409 
Q 2484 409 2743 651 
Q 3003 894 3003 1313 
Q 3003 1734 2745 1975 
Q 2488 2216 2034 2216 
z
M 1403 2484 
Q 997 2584 770 2862 
Q 544 3141 544 3541 
Q 544 4100 942 4425 
Q 1341 4750 2034 4750 
Q 2731 4750 3128 4425 
Q 3525 4100 3525 3541 
Q 3525 3141 3298 2862 
Q 3072 2584 2669 2484 
Q 3125 2378 3379 2068 
Q 3634 1759 3634 1313 
Q 3634 634 3220 271 
Q 2806 -91 2034 -91 
Q 1263 -91 848 271 
Q 434 634 434 1313 
Q 434 1759 690 2068 
Q 947 2378 1403 2484 
z
M 1172 3481 
Q 1172 3119 1398 2916 
Q 1625 2713 2034 2713 
Q 2441 2713 2670 2916 
Q 2900 3119 2900 3481 
Q 2900 3844 2670 4047 
Q 2441 4250 2034 4250 
Q 1625 4250 1398 4047 
Q 1172 3844 1172 3481 
z
" transform="scale(0.015625)"/>
       </defs>
       <use xlink:href="#DejaVuSans-38"/>
      </g>
     </g>
    </g>
    <g id="ytick_5">
     <g id="line2d_19">
      <path d="M 72 107.42667 
L 518.4 107.42667 
" clip-path="url(#p07ee99c562)" style="fill: none; stroke: #b0b0b0; stroke-width: 0.8; stroke-linecap: square"/>
     </g>
     <g id="line2d_20">
      <g>
       <use xlink:href="#me200291a40" x="72" y="107.42667" style="stroke: #000000; stroke-width: 0.8"/>
      </g>
     </g>
     <g id="text_11">
      <!-- 10 -->
      <g transform="translate(52.275 111.225889) scale(0.1 -0.1)">
       <use xlink:href="#DejaVuSans-31"/>
       <use xlink:href="#DejaVuSans-30" x="63.623047"/>
      </g>
     </g>
    </g>
    <g id="text_12">
     <!-- Speedup -->
     <g transform="translate(46.195312 240.17875) rotate(-90) scale(0.1 -0.1)">
      <defs>
       <path id="DejaVuSans-53" d="M 3425 4513 
L 3425 3897 
Q 3066 4069 2747 4153 
Q 2428 4238 2131 4238 
Q 1616 4238 1336 4038 
Q 1056 3838 1056 3469 
Q 1056 3159 1242 3001 
Q 1428 2844 1947 2747 
L 2328 2669 
Q 3034 2534 3370 2195 
Q 3706 1856 3706 1288 
Q 3706 609 3251 259 
Q 2797 -91 1919 -91 
Q 1588 -91 1214 -16 
Q 841 59 441 206 
L 441 856 
Q 825 641 1194 531 
Q 1563 422 1919 422 
Q 2459 422 2753 634 
Q 3047 847 3047 1241 
Q 3047 1584 2836 1778 
Q 2625 1972 2144 2069 
L 1759 2144 
Q 1053 2284 737 2584 
Q 422 2884 422 3419 
Q 422 4038 858 4394 
Q 1294 4750 2059 4750 
Q 2388 4750 2728 4690 
Q 3069 4631 3425 4513 
z
" transform="scale(0.015625)"/>
      </defs>
      <use xlink:href="#DejaVuSans-53"/>
      <use xlink:href="#DejaVuSans-70" x="63.476562"/>
      <use xlink:href="#DejaVuSans-65" x="126.953125"/>
      <use xlink:href="#DejaVuSans-65" x="188.476562"/>
      <use xlink:href="#DejaVuSans-64" x="250"/>
      <use xlink:href="#DejaVuSans-75" x="313.476562"/>
      <use xlink:href="#DejaVuSans-70" x="376.855469"/>
     </g>
    </g>
   </g>
   <g id="line2d_21">
    <path d="M 92.290909 381.325226 
L 193.745455 343.690639 
L 295.2 294.994638 
L 396.654545 220.628508 
L 498.109091 108.673344 
" clip-path="url(#p07ee99c562)" style="fill: none; stroke: #1f77b4; stroke-width: 1.5; stroke-linecap: square"/>
   </g>
   <g id="line2d_22">
    <path d="M 92.290909 381.4365 
L 193.745455 351.108482 
L 295.2 303.86325 
L 396.654545 234.81662 
L 498.109091 145.132482 
" clip-path="url(#p07ee99c562)" style="fill: none; stroke: #ff7f0e; stroke-width: 1.5; stroke-linecap: square"/>
   </g>
   <g id="line2d_23">
    <path d="M 92.290909 380.349299 
L 193.745455 349.400207 
L 295.2 315.448174 
L 396.654545 263.887485 
L 498.109091 224.049851 
" clip-path="url(#p07ee99c562)" style="fill: none; stroke: #2ca02c; stroke-width: 1.5; stroke-linecap: square"/>
   </g>
   <g id="line2d_24">
    <path d="M 92.290909 379.458163 
L 193.745455 357.34199 
L 295.2 346.330013 
L 396.654545 331.331706 
L 498.109091 349.32589 
" clip-path="url(#p07ee99c562)" style="fill: none; stroke: #d62728; stroke-width: 1.5; stroke-linecap: square"/>
   </g>
   <g id="line2d_25">
    <path d="M 92.290909 381.237193 
L 193.745455 381.282358 
L 295.2 377.894276 
L 396.654545 376.660553 
L 498.109091 384.971438 
" clip-path="url(#p07ee99c562)" style="fill: none; stroke: #9467bd; stroke-width: 1.5; stroke-linecap: square"/>
   </g>
   <g id="line2d_26">
    <path d="M 92.290909 381.435458 
L 193.745455 350.990037 
L 295.2 290.099195 
L 396.654545 168.317512 
L 467.182521 -1 
" clip-path="url(#p07ee99c562)" style="fill: none; stroke-dasharray: 5.55,2.4; stroke-dashoffset: 0; stroke: #ffa500; stroke-width: 1.5"/>
   </g>
   <g id="patch_3">
    <path d="M 72 384.48 
L 72 51.84 
" style="fill: none; stroke: #000000; stroke-width: 0.8; stroke-linejoin: miter; stroke-linecap: square"/>
   </g>
   <g id="patch_4">
    <path d="M 518.4 384.48 
L 518.4 51.84 
" style="fill: none; stroke: #000000; stroke-width: 0.8; stroke-linejoin: miter; stroke-linecap: square"/>
   </g>
   <g id="patch_5">
    <path d="M 72 384.48 
L 518.4 384.48 
" style="fill: none; stroke: #000000; stroke-width: 0.8; stroke-linejoin: miter; stroke-linecap: square"/>
   </g>
   <g id="patch_6">
    <path d="M 72 51.84 
L 518.4 51.84 
" style="fill: none; stroke: #000000; stroke-width: 0.8; stroke-linejoin: miter; stroke-linecap: square"/>
   </g>
   <g id="text_13">
    <!-- Speedup avg. (1st rem.); $\pm\sigma$ error; 10 runs each -->
    <g transform="translate(149.7 45.84) scale(0.12 -0.12)">
     <defs>
      <path id="DejaVuSans-76" d="M 191 3500 
L 800 3500 
L 1894 563 
L 2988 3500 
L 3597 3500 
L 2284 0 
L 1503 0 
L 191 3500 
z
" transform="scale(0.015625)"/>
      <path id="DejaVuSans-67" d="M 2906 1791 
Q 2906 2416 2648 2759 
Q 2391 3103 1925 3103 
Q 1463 3103 1205 2759 
Q 947 2416 947 1791 
Q 947 1169 1205 825 
Q 1463 481 1925 481 
Q 2391 481 2648 825 
Q 2906 1169 2906 1791 
z
M 3481 434 
Q 3481 -459 3084 -895 
Q 2688 -1331 1869 -1331 
Q 1566 -1331 1297 -1286 
Q 1028 -1241 775 -1147 
L 775 -588 
Q 1028 -725 1275 -790 
Q 1522 -856 1778 -856 
Q 2344 -856 2625 -561 
Q 2906 -266 2906 331 
L 2906 616 
Q 2728 306 2450 153 
Q 2172 0 1784 0 
Q 1141 0 747 490 
Q 353 981 353 1791 
Q 353 2603 747 3093 
Q 1141 3584 1784 3584 
Q 2172 3584 2450 3431 
Q 2728 3278 2906 2969 
L 2906 3500 
L 3481 3500 
L 3481 434 
z
" transform="scale(0.015625)"/>
      <path id="DejaVuSans-2e" d="M 684 794 
L 1344 794 
L 1344 0 
L 684 0 
L 684 794 
z
" transform="scale(0.015625)"/>
      <path id="DejaVuSans-28" d="M 1984 4856 
Q 1566 4138 1362 3434 
Q 1159 2731 1159 2009 
Q 1159 1288 1364 580 
Q 1569 -128 1984 -844 
L 1484 -844 
Q 1016 -109 783 600 
Q 550 1309 550 2009 
Q 550 2706 781 3412 
Q 1013 4119 1484 4856 
L 1984 4856 
z
" transform="scale(0.015625)"/>
      <path id="DejaVuSans-29" d="M 513 4856 
L 1013 4856 
Q 1481 4119 1714 3412 
Q 1947 2706 1947 2009 
Q 1947 1309 1714 600 
Q 1481 -109 1013 -844 
L 513 -844 
Q 928 -128 1133 580 
Q 1338 1288 1338 2009 
Q 1338 2731 1133 3434 
Q 928 4138 513 4856 
z
" transform="scale(0.015625)"/>
      <path id="DejaVuSans-3b" d="M 750 3309 
L 1409 3309 
L 1409 2516 
L 750 2516 
L 750 3309 
z
M 750 794 
L 1409 794 
L 1409 256 
L 897 -744 
L 494 -744 
L 750 256 
L 750 794 
z
" transform="scale(0.015625)"/>
      <path id="DejaVuSans-b1" d="M 2944 4013 
L 2944 2803 
L 4684 2803 
L 4684 2272 
L 2944 2272 
L 2944 1063 
L 2419 1063 
L 2419 2272 
L 678 2272 
L 678 2803 
L 2419 2803 
L 2419 4013 
L 2944 4013 
z
M 678 531 
L 4684 531 
L 4684 0 
L 678 0 
L 678 531 
z
" transform="scale(0.015625)"/>
      <path id="DejaVuSans-Oblique-3c3" d="M 2219 3044 
Q 1744 3044 1422 2700 
Q 1081 2341 969 1747 
Q 844 1119 1044 756 
Q 1241 397 1706 397 
Q 2166 397 2503 759 
Q 2844 1122 2966 1747 
Q 3075 2319 2881 2700 
Q 2700 3044 2219 3044 
z
M 2309 3503 
L 4219 3500 
L 4106 2925 
L 3463 2925 
Q 3706 2438 3575 1747 
Q 3406 888 2884 400 
Q 2359 -91 1609 -91 
Q 856 -91 525 400 
Q 194 888 363 1747 
Q 528 2609 1050 3097 
Q 1484 3503 2309 3503 
z
" transform="scale(0.015625)"/>
      <path id="DejaVuSans-63" d="M 3122 3366 
L 3122 2828 
Q 2878 2963 2633 3030 
Q 2388 3097 2138 3097 
Q 1578 3097 1268 2742 
Q 959 2388 959 1747 
Q 959 1106 1268 751 
Q 1578 397 2138 397 
Q 2388 397 2633 464 
Q 2878 531 3122 666 
L 3122 134 
Q 2881 22 2623 -34 
Q 2366 -91 2075 -91 
Q 1284 -91 818 406 
Q 353 903 353 1747 
Q 353 2603 823 3093 
Q 1294 3584 2113 3584 
Q 2378 3584 2631 3529 
Q 2884 3475 3122 3366 
z
" transform="scale(0.015625)"/>
     </defs>
     <use xlink:href="#DejaVuSans-53" transform="translate(0 0.015625)"/>
     <use xlink:href="#DejaVuSans-70" transform="translate(63.476562 0.015625)"/>
     <use xlink:href="#DejaVuSans-65" transform="translate(126.953125 0.015625)"/>
     <use xlink:href="#DejaVuSans-65" transform="translate(188.476562 0.015625)"/>
     <use xlink:href="#DejaVuSans-64" transform="translate(250 0.015625)"/>
     <use xlink:href="#DejaVuSans-75" transform="translate(313.476562 0.015625)"/>
     <use xlink:href="#DejaVuSans-70" transform="translate(376.855469 0.015625)"/>
     <use xlink:href="#DejaVuSans-20" transform="translate(440.332031 0.015625)"/>
     <use xlink:href="#DejaVuSans-61" transform="translate(472.119141 0.015625)"/>
     <use xlink:href="#DejaVuSans-76" transform="translate(533.398438 0.015625)"/>
     <use xlink:href="#DejaVuSans-67" transform="translate(592.578125 0.015625)"/>
     <use xlink:href="#DejaVuSans-2e" transform="translate(656.054688 0.015625)"/>
     <use xlink:href="#DejaVuSans-20" transform="translate(687.841797 0.015625)"/>
     <use xlink:href="#DejaVuSans-28" transform="translate(719.628906 0.015625)"/>
     <use xlink:href="#DejaVuSans-31" transform="translate(758.642578 0.015625)"/>
     <use xlink:href="#DejaVuSans-73" transform="translate(822.265625 0.015625)"/>
     <use xlink:href="#DejaVuSans-74" transform="translate(874.365234 0.015625)"/>
     <use xlink:href="#DejaVuSans-20" transform="translate(913.574219 0.015625)"/>
     <use xlink:href="#DejaVuSans-72" transform="translate(945.361328 0.015625)"/>
     <use xlink:href="#DejaVuSans-65" transform="translate(986.474609 0.015625)"/>
     <use xlink:href="#DejaVuSans-6d" transform="translate(1047.998047 0.015625)"/>
     <use xlink:href="#DejaVuSans-2e" transform="translate(1145.410156 0.015625)"/>
     <use xlink:href="#DejaVuSans-29" transform="translate(1177.197266 0.015625)"/>
     <use xlink:href="#DejaVuSans-3b" transform="translate(1216.210938 0.015625)"/>
     <use xlink:href="#DejaVuSans-20" transform="translate(1249.902344 0.015625)"/>
     <use xlink:href="#DejaVuSans-b1" transform="translate(1281.689453 0.015625)"/>
     <use xlink:href="#DejaVuSans-Oblique-3c3" transform="translate(1365.478516 0.015625)"/>
     <use xlink:href="#DejaVuSans-20" transform="translate(1428.857422 0.015625)"/>
     <use xlink:href="#DejaVuSans-65" transform="translate(1460.644531 0.015625)"/>
     <use xlink:href="#DejaVuSans-72" transform="translate(1522.167969 0.015625)"/>
     <use xlink:href="#DejaVuSans-72" transform="translate(1563.28125 0.015625)"/>
     <use xlink:href="#DejaVuSans-6f" transform="translate(1604.394531 0.015625)"/>
     <use xlink:href="#DejaVuSans-72" transform="translate(1665.576172 0.015625)"/>
     <use xlink:href="#DejaVuSans-3b" transform="translate(1706.689453 0.015625)"/>
     <use xlink:href="#DejaVuSans-20" transform="translate(1740.380859 0.015625)"/>
     <use xlink:href="#DejaVuSans-31" transform="translate(1772.167969 0.015625)"/>
     <use xlink:href="#DejaVuSans-30" transform="translate(1835.791016 0.015625)"/>
     <use xlink:href="#DejaVuSans-20" transform="translate(1899.414062 0.015625)"/>
     <use xlink:href="#DejaVuSans-72" transform="translate(1931.201172 0.015625)"/>
     <use xlink:href="#DejaVuSans-75" transform="translate(1972.314453 0.015625)"/>
     <use xlink:href="#DejaVuSans-6e" transform="translate(2035.693359 0.015625)"/>
     <use xlink:href="#DejaVuSans-73" transform="translate(2099.072266 0.015625)"/>
     <use xlink:href="#DejaVuSans-20" transform="translate(2151.171875 0.015625)"/>
     <use xlink:href="#DejaVuSans-65" transform="translate(2182.958984 0.015625)"/>
     <use xlink:href="#DejaVuSans-61" transform="translate(2244.482422 0.015625)"/>
     <use xlink:href="#DejaVuSans-63" transform="translate(2305.761719 0.015625)"/>
     <use xlink:href="#DejaVuSans-68" transform="translate(2360.742188 0.015625)"/>
    </g>
   </g>
   <g id="legend_1">
    <g id="patch_7">
     <path d="M 79 147.90875 
L 313.80625 147.90875 
Q 315.80625 147.90875 315.80625 145.90875 
L 315.80625 58.84 
Q 315.80625 56.84 313.80625 56.84 
L 79 56.84 
Q 77 56.84 77 58.84 
L 77 145.90875 
Q 77 147.90875 79 147.90875 
z
" style="fill: #ffffff; opacity: 0.8; stroke: #cccccc; stroke-linejoin: miter"/>
    </g>
    <g id="line2d_27">
     <path d="M 81 64.938437 
L 91 64.938437 
L 101 64.938437 
" style="fill: none; stroke: #1f77b4; stroke-width: 1.5; stroke-linecap: square"/>
    </g>
    <g id="text_14">
     <!-- resolution 1024x1024 base time: 92.52s -->
     <g transform="translate(109 68.438437) scale(0.1 -0.1)">
      <defs>
       <path id="DejaVuSans-6c" d="M 603 4863 
L 1178 4863 
L 1178 0 
L 603 0 
L 603 4863 
z
" transform="scale(0.015625)"/>
       <path id="DejaVuSans-69" d="M 603 3500 
L 1178 3500 
L 1178 0 
L 603 0 
L 603 3500 
z
M 603 4863 
L 1178 4863 
L 1178 4134 
L 603 4134 
L 603 4863 
z
" transform="scale(0.015625)"/>
       <path id="DejaVuSans-78" d="M 3513 3500 
L 2247 1797 
L 3578 0 
L 2900 0 
L 1881 1375 
L 863 0 
L 184 0 
L 1544 1831 
L 300 3500 
L 978 3500 
L 1906 2253 
L 2834 3500 
L 3513 3500 
z
" transform="scale(0.015625)"/>
       <path id="DejaVuSans-3a" d="M 750 794 
L 1409 794 
L 1409 0 
L 750 0 
L 750 794 
z
M 750 3309 
L 1409 3309 
L 1409 2516 
L 750 2516 
L 750 3309 
z
" transform="scale(0.015625)"/>
       <path id="DejaVuSans-39" d="M 703 97 
L 703 672 
Q 941 559 1184 500 
Q 1428 441 1663 441 
Q 2288 441 2617 861 
Q 2947 1281 2994 2138 
Q 2813 1869 2534 1725 
Q 2256 1581 1919 1581 
Q 1219 1581 811 2004 
Q 403 2428 403 3163 
Q 403 3881 828 4315 
Q 1253 4750 1959 4750 
Q 2769 4750 3195 4129 
Q 3622 3509 3622 2328 
Q 3622 1225 3098 567 
Q 2575 -91 1691 -91 
Q 1453 -91 1209 -44 
Q 966 3 703 97 
z
M 1959 2075 
Q 2384 2075 2632 2365 
Q 2881 2656 2881 3163 
Q 2881 3666 2632 3958 
Q 2384 4250 1959 4250 
Q 1534 4250 1286 3958 
Q 1038 3666 1038 3163 
Q 1038 2656 1286 2365 
Q 1534 2075 1959 2075 
z
" transform="scale(0.015625)"/>
       <path id="DejaVuSans-35" d="M 691 4666 
L 3169 4666 
L 3169 4134 
L 1269 4134 
L 1269 2991 
Q 1406 3038 1543 3061 
Q 1681 3084 1819 3084 
Q 2600 3084 3056 2656 
Q 3513 2228 3513 1497 
Q 3513 744 3044 326 
Q 2575 -91 1722 -91 
Q 1428 -91 1123 -41 
Q 819 9 494 109 
L 494 744 
Q 775 591 1075 516 
Q 1375 441 1709 441 
Q 2250 441 2565 725 
Q 2881 1009 2881 1497 
Q 2881 1984 2565 2268 
Q 2250 2553 1709 2553 
Q 1456 2553 1204 2497 
Q 953 2441 691 2322 
L 691 4666 
z
" transform="scale(0.015625)"/>
      </defs>
      <use xlink:href="#DejaVuSans-72"/>
      <use xlink:href="#DejaVuSans-65" x="38.863281"/>
      <use xlink:href="#DejaVuSans-73" x="100.386719"/>
      <use xlink:href="#DejaVuSans-6f" x="152.486328"/>
      <use xlink:href="#DejaVuSans-6c" x="213.667969"/>
      <use xlink:href="#DejaVuSans-75" x="241.451172"/>
      <use xlink:href="#DejaVuSans-74" x="304.830078"/>
      <use xlink:href="#DejaVuSans-69" x="344.039062"/>
      <use xlink:href="#DejaVuSans-6f" x="371.822266"/>
      <use xlink:href="#DejaVuSans-6e" x="433.003906"/>
      <use xlink:href="#DejaVuSans-20" x="496.382812"/>
      <use xlink:href="#DejaVuSans-31" x="528.169922"/>
      <use xlink:href="#DejaVuSans-30" x="591.792969"/>
      <use xlink:href="#DejaVuSans-32" x="655.416016"/>
      <use xlink:href="#DejaVuSans-34" x="719.039062"/>
      <use xlink:href="#DejaVuSans-78" x="782.662109"/>
      <use xlink:href="#DejaVuSans-31" x="841.841797"/>
      <use xlink:href="#DejaVuSans-30" x="905.464844"/>
      <use xlink:href="#DejaVuSans-32" x="969.087891"/>
      <use xlink:href="#DejaVuSans-34" x="1032.710938"/>
      <use xlink:href="#DejaVuSans-20" x="1096.333984"/>
      <use xlink:href="#DejaVuSans-62" x="1128.121094"/>
      <use xlink:href="#DejaVuSans-61" x="1191.597656"/>
      <use xlink:href="#DejaVuSans-73" x="1252.876953"/>
      <use xlink:href="#DejaVuSans-65" x="1304.976562"/>
      <use xlink:href="#DejaVuSans-20" x="1366.5"/>
      <use xlink:href="#DejaVuSans-74" x="1398.287109"/>
      <use xlink:href="#DejaVuSans-69" x="1437.496094"/>
      <use xlink:href="#DejaVuSans-6d" x="1465.279297"/>
      <use xlink:href="#DejaVuSans-65" x="1562.691406"/>
      <use xlink:href="#DejaVuSans-3a" x="1624.214844"/>
      <use xlink:href="#DejaVuSans-20" x="1657.90625"/>
      <use xlink:href="#DejaVuSans-39" x="1689.693359"/>
      <use xlink:href="#DejaVuSans-32" x="1753.316406"/>
      <use xlink:href="#DejaVuSans-2e" x="1816.939453"/>
      <use xlink:href="#DejaVuSans-35" x="1848.726562"/>
      <use xlink:href="#DejaVuSans-32" x="1912.349609"/>
      <use xlink:href="#DejaVuSans-73" x="1975.972656"/>
     </g>
    </g>
    <g id="line2d_28">
     <path d="M 81 79.616562 
L 91 79.616562 
L 101 79.616562 
" style="fill: none; stroke: #ff7f0e; stroke-width: 1.5; stroke-linecap: square"/>
    </g>
    <g id="text_15">
     <!-- resolution 512x512 base time: 9.29s -->
     <g transform="translate(109 83.116562) scale(0.1 -0.1)">
      <use xlink:href="#DejaVuSans-72"/>
      <use xlink:href="#DejaVuSans-65" x="38.863281"/>
      <use xlink:href="#DejaVuSans-73" x="100.386719"/>
      <use xlink:href="#DejaVuSans-6f" x="152.486328"/>
      <use xlink:href="#DejaVuSans-6c" x="213.667969"/>
      <use xlink:href="#DejaVuSans-75" x="241.451172"/>
      <use xlink:href="#DejaVuSans-74" x="304.830078"/>
      <use xlink:href="#DejaVuSans-69" x="344.039062"/>
      <use xlink:href="#DejaVuSans-6f" x="371.822266"/>
      <use xlink:href="#DejaVuSans-6e" x="433.003906"/>
      <use xlink:href="#DejaVuSans-20" x="496.382812"/>
      <use xlink:href="#DejaVuSans-35" x="528.169922"/>
      <use xlink:href="#DejaVuSans-31" x="591.792969"/>
      <use xlink:href="#DejaVuSans-32" x="655.416016"/>
      <use xlink:href="#DejaVuSans-78" x="719.039062"/>
      <use xlink:href="#DejaVuSans-35" x="778.21875"/>
      <use xlink:href="#DejaVuSans-31" x="841.841797"/>
      <use xlink:href="#DejaVuSans-32" x="905.464844"/>
      <use xlink:href="#DejaVuSans-20" x="969.087891"/>
      <use xlink:href="#DejaVuSans-62" x="1000.875"/>
      <use xlink:href="#DejaVuSans-61" x="1064.351562"/>
      <use xlink:href="#DejaVuSans-73" x="1125.630859"/>
      <use xlink:href="#DejaVuSans-65" x="1177.730469"/>
      <use xlink:href="#DejaVuSans-20" x="1239.253906"/>
      <use xlink:href="#DejaVuSans-74" x="1271.041016"/>
      <use xlink:href="#DejaVuSans-69" x="1310.25"/>
      <use xlink:href="#DejaVuSans-6d" x="1338.033203"/>
      <use xlink:href="#DejaVuSans-65" x="1435.445312"/>
      <use xlink:href="#DejaVuSans-3a" x="1496.96875"/>
      <use xlink:href="#DejaVuSans-20" x="1530.660156"/>
      <use xlink:href="#DejaVuSans-39" x="1562.447266"/>
      <use xlink:href="#DejaVuSans-2e" x="1626.070312"/>
      <use xlink:href="#DejaVuSans-32" x="1657.857422"/>
      <use xlink:href="#DejaVuSans-39" x="1721.480469"/>
      <use xlink:href="#DejaVuSans-73" x="1785.103516"/>
     </g>
    </g>
    <g id="line2d_29">
     <path d="M 81 94.294687 
L 91 94.294687 
L 101 94.294687 
" style="fill: none; stroke: #2ca02c; stroke-width: 1.5; stroke-linecap: square"/>
    </g>
    <g id="text_16">
     <!-- resolution 256x256 base time: 1.45s -->
     <g transform="translate(109 97.794687) scale(0.1 -0.1)">
      <use xlink:href="#DejaVuSans-72"/>
      <use xlink:href="#DejaVuSans-65" x="38.863281"/>
      <use xlink:href="#DejaVuSans-73" x="100.386719"/>
      <use xlink:href="#DejaVuSans-6f" x="152.486328"/>
      <use xlink:href="#DejaVuSans-6c" x="213.667969"/>
      <use xlink:href="#DejaVuSans-75" x="241.451172"/>
      <use xlink:href="#DejaVuSans-74" x="304.830078"/>
      <use xlink:href="#DejaVuSans-69" x="344.039062"/>
      <use xlink:href="#DejaVuSans-6f" x="371.822266"/>
      <use xlink:href="#DejaVuSans-6e" x="433.003906"/>
      <use xlink:href="#DejaVuSans-20" x="496.382812"/>
      <use xlink:href="#DejaVuSans-32" x="528.169922"/>
      <use xlink:href="#DejaVuSans-35" x="591.792969"/>
      <use xlink:href="#DejaVuSans-36" x="655.416016"/>
      <use xlink:href="#DejaVuSans-78" x="719.039062"/>
      <use xlink:href="#DejaVuSans-32" x="778.21875"/>
      <use xlink:href="#DejaVuSans-35" x="841.841797"/>
      <use xlink:href="#DejaVuSans-36" x="905.464844"/>
      <use xlink:href="#DejaVuSans-20" x="969.087891"/>
      <use xlink:href="#DejaVuSans-62" x="1000.875"/>
      <use xlink:href="#DejaVuSans-61" x="1064.351562"/>
      <use xlink:href="#DejaVuSans-73" x="1125.630859"/>
      <use xlink:href="#DejaVuSans-65" x="1177.730469"/>
      <use xlink:href="#DejaVuSans-20" x="1239.253906"/>
      <use xlink:href="#DejaVuSans-74" x="1271.041016"/>
      <use xlink:href="#DejaVuSans-69" x="1310.25"/>
      <use xlink:href="#DejaVuSans-6d" x="1338.033203"/>
      <use xlink:href="#DejaVuSans-65" x="1435.445312"/>
      <use xlink:href="#DejaVuSans-3a" x="1496.96875"/>
      <use xlink:href="#DejaVuSans-20" x="1530.660156"/>
      <use xlink:href="#DejaVuSans-31" x="1562.447266"/>
      <use xlink:href="#DejaVuSans-2e" x="1626.070312"/>
      <use xlink:href="#DejaVuSans-34" x="1657.857422"/>
      <use xlink:href="#DejaVuSans-35" x="1721.480469"/>
      <use xlink:href="#DejaVuSans-73" x="1785.103516"/>
     </g>
    </g>
    <g id="line2d_30">
     <path d="M 81 108.972812 
L 91 108.972812 
L 101 108.972812 
" style="fill: none; stroke: #d62728; stroke-width: 1.5; stroke-linecap: square"/>
    </g>
    <g id="text_17">
     <!-- resolution 128x128 base time: 0.26s -->
     <g transform="translate(109 112.472812) scale(0.1 -0.1)">
      <use xlink:href="#DejaVuSans-72"/>
      <use xlink:href="#DejaVuSans-65" x="38.863281"/>
      <use xlink:href="#DejaVuSans-73" x="100.386719"/>
      <use xlink:href="#DejaVuSans-6f" x="152.486328"/>
      <use xlink:href="#DejaVuSans-6c" x="213.667969"/>
      <use xlink:href="#DejaVuSans-75" x="241.451172"/>
      <use xlink:href="#DejaVuSans-74" x="304.830078"/>
      <use xlink:href="#DejaVuSans-69" x="344.039062"/>
      <use xlink:href="#DejaVuSans-6f" x="371.822266"/>
      <use xlink:href="#DejaVuSans-6e" x="433.003906"/>
      <use xlink:href="#DejaVuSans-20" x="496.382812"/>
      <use xlink:href="#DejaVuSans-31" x="528.169922"/>
      <use xlink:href="#DejaVuSans-32" x="591.792969"/>
      <use xlink:href="#DejaVuSans-38" x="655.416016"/>
      <use xlink:href="#DejaVuSans-78" x="719.039062"/>
      <use xlink:href="#DejaVuSans-31" x="778.21875"/>
      <use xlink:href="#DejaVuSans-32" x="841.841797"/>
      <use xlink:href="#DejaVuSans-38" x="905.464844"/>
      <use xlink:href="#DejaVuSans-20" x="969.087891"/>
      <use xlink:href="#DejaVuSans-62" x="1000.875"/>
      <use xlink:href="#DejaVuSans-61" x="1064.351562"/>
      <use xlink:href="#DejaVuSans-73" x="1125.630859"/>
      <use xlink:href="#DejaVuSans-65" x="1177.730469"/>
      <use xlink:href="#DejaVuSans-20" x="1239.253906"/>
      <use xlink:href="#DejaVuSans-74" x="1271.041016"/>
      <use xlink:href="#DejaVuSans-69" x="1310.25"/>
      <use xlink:href="#DejaVuSans-6d" x="1338.033203"/>
      <use xlink:href="#DejaVuSans-65" x="1435.445312"/>
      <use xlink:href="#DejaVuSans-3a" x="1496.96875"/>
      <use xlink:href="#DejaVuSans-20" x="1530.660156"/>
      <use xlink:href="#DejaVuSans-30" x="1562.447266"/>
      <use xlink:href="#DejaVuSans-2e" x="1626.070312"/>
      <use xlink:href="#DejaVuSans-32" x="1657.857422"/>
      <use xlink:href="#DejaVuSans-36" x="1721.480469"/>
      <use xlink:href="#DejaVuSans-73" x="1785.103516"/>
     </g>
    </g>
    <g id="line2d_31">
     <path d="M 81 123.650937 
L 91 123.650937 
L 101 123.650937 
" style="fill: none; stroke: #9467bd; stroke-width: 1.5; stroke-linecap: square"/>
    </g>
    <g id="text_18">
     <!-- resolution 64x64 base time: 0.05s -->
     <g transform="translate(109 127.150937) scale(0.1 -0.1)">
      <use xlink:href="#DejaVuSans-72"/>
      <use xlink:href="#DejaVuSans-65" x="38.863281"/>
      <use xlink:href="#DejaVuSans-73" x="100.386719"/>
      <use xlink:href="#DejaVuSans-6f" x="152.486328"/>
      <use xlink:href="#DejaVuSans-6c" x="213.667969"/>
      <use xlink:href="#DejaVuSans-75" x="241.451172"/>
      <use xlink:href="#DejaVuSans-74" x="304.830078"/>
      <use xlink:href="#DejaVuSans-69" x="344.039062"/>
      <use xlink:href="#DejaVuSans-6f" x="371.822266"/>
      <use xlink:href="#DejaVuSans-6e" x="433.003906"/>
      <use xlink:href="#DejaVuSans-20" x="496.382812"/>
      <use xlink:href="#DejaVuSans-36" x="528.169922"/>
      <use xlink:href="#DejaVuSans-34" x="591.792969"/>
      <use xlink:href="#DejaVuSans-78" x="655.416016"/>
      <use xlink:href="#DejaVuSans-36" x="714.595703"/>
      <use xlink:href="#DejaVuSans-34" x="778.21875"/>
      <use xlink:href="#DejaVuSans-20" x="841.841797"/>
      <use xlink:href="#DejaVuSans-62" x="873.628906"/>
      <use xlink:href="#DejaVuSans-61" x="937.105469"/>
      <use xlink:href="#DejaVuSans-73" x="998.384766"/>
      <use xlink:href="#DejaVuSans-65" x="1050.484375"/>
      <use xlink:href="#DejaVuSans-20" x="1112.007812"/>
      <use xlink:href="#DejaVuSans-74" x="1143.794922"/>
      <use xlink:href="#DejaVuSans-69" x="1183.003906"/>
      <use xlink:href="#DejaVuSans-6d" x="1210.787109"/>
      <use xlink:href="#DejaVuSans-65" x="1308.199219"/>
      <use xlink:href="#DejaVuSans-3a" x="1369.722656"/>
      <use xlink:href="#DejaVuSans-20" x="1403.414062"/>
      <use xlink:href="#DejaVuSans-30" x="1435.201172"/>
      <use xlink:href="#DejaVuSans-2e" x="1498.824219"/>
      <use xlink:href="#DejaVuSans-30" x="1530.611328"/>
      <use xlink:href="#DejaVuSans-35" x="1594.234375"/>
      <use xlink:href="#DejaVuSans-73" x="1657.857422"/>
     </g>
    </g>
    <g id="line2d_32">
     <path d="M 81 138.329062 
L 91 138.329062 
L 101 138.329062 
" style="fill: none; stroke-dasharray: 5.55,2.4; stroke-dashoffset: 0; stroke: #ffa500; stroke-width: 1.5"/>
    </g>
    <g id="text_19">
     <!-- Ideal speedup -->
     <g transform="translate(109 141.829062) scale(0.1 -0.1)">
      <defs>
       <path id="DejaVuSans-49" d="M 628 4666 
L 1259 4666 
L 1259 0 
L 628 0 
L 628 4666 
z
" transform="scale(0.015625)"/>
      </defs>
      <use xlink:href="#DejaVuSans-49"/>
      <use xlink:href="#DejaVuSans-64" x="29.492188"/>
      <use xlink:href="#DejaVuSans-65" x="92.96875"/>
      <use xlink:href="#DejaVuSans-61" x="154.492188"/>
      <use xlink:href="#DejaVuSans-6c" x="215.771484"/>
      <use xlink:href="#DejaVuSans-20" x="243.554688"/>
      <use xlink:href="#DejaVuSans-73" x="275.341797"/>
      <use xlink:href="#DejaVuSans-70" x="327.441406"/>
      <use xlink:href="#DejaVuSans-65" x="390.917969"/>
      <use xlink:href="#DejaVuSans-65" x="452.441406"/>
      <use xlink:href="#DejaVuSans-64" x="513.964844"/>
      <use xlink:href="#DejaVuSans-75" x="577.441406"/>
      <use xlink:href="#DejaVuSans-70" x="640.820312"/>
     </g>
    </g>
   </g>
  </g>
 </g>
 <defs>
  <clipPath id="p07ee99c562">
   <rect x="72" y="51.84" width="446.4" height="332.64"/>
  </clipPath>
 </defs>
</svg>
