<?xml version="1.0" encoding="UTF-8" standalone="no"?>
<!-- Created with Inkscape (http://www.inkscape.org/) -->

<svg
   version="1.1"
   id="svg1"
   width="236"
   height="65.333336"
   viewBox="0 0 236 65.333336"
   sodipodi:docname="ETHlogo_13.pdf"
   xmlns:inkscape="http://www.inkscape.org/namespaces/inkscape"
   xmlns:sodipodi="http://sodipodi.sourceforge.net/DTD/sodipodi-0.dtd"
   xmlns="http://www.w3.org/2000/svg"
   xmlns:svg="http://www.w3.org/2000/svg">
  <defs
     id="defs1">
    <clipPath
       clipPathUnits="userSpaceOnUse"
       id="clipPath2">
      <path
         d="M 10,10 H 1768.13 V 481.488 H 10 Z"
         id="path2" />
    </clipPath>
    <clipPath
       clipPathUnits="userSpaceOnUse"
       id="clipPath4">
      <path
         d="M 10,10 H 1768.13 V 481.488 H 10 Z"
         id="path4" />
    </clipPath>
    <clipPath
       clipPathUnits="userSpaceOnUse"
       id="clipPath6">
      <path
         d="M 10,10 H 1768.13 V 481.488 H 10 Z"
         id="path6" />
    </clipPath>
    <clipPath
       clipPathUnits="userSpaceOnUse"
       id="clipPath8">
      <path
         d="M 10,10 H 1768.13 V 481.488 H 10 Z"
         id="path8" />
    </clipPath>
    <clipPath
       clipPathUnits="userSpaceOnUse"
       id="clipPath10">
      <path
         d="M 10,10 H 1768.13 V 481.488 H 10 Z"
         id="path10" />
    </clipPath>
    <clipPath
       clipPathUnits="userSpaceOnUse"
       id="clipPath12">
      <path
         d="M 10,10 H 1768.13 V 481.488 H 10 Z"
         id="path12" />
    </clipPath>
    <clipPath
       clipPathUnits="userSpaceOnUse"
       id="clipPath14">
      <path
         d="M 10,10 H 1768.13 V 481.488 H 10 Z"
         id="path14" />
    </clipPath>
    <clipPath
       clipPathUnits="userSpaceOnUse"
       id="clipPath16">
      <path
         d="M 10,10 H 1768.13 V 481.488 H 10 Z"
         id="path16" />
    </clipPath>
    <clipPath
       clipPathUnits="userSpaceOnUse"
       id="clipPath18">
      <path
         d="M 10,10 H 1768.13 V 481.488 H 10 Z"
         id="path18" />
    </clipPath>
    <clipPath
       clipPathUnits="userSpaceOnUse"
       id="clipPath20">
      <path
         d="M 10,10 H 1768.13 V 481.488 H 10 Z"
         id="path20" />
    </clipPath>
    <clipPath
       clipPathUnits="userSpaceOnUse"
       id="clipPath22">
      <path
         d="M 10,10 H 1768.13 V 481.488 H 10 Z"
         id="path22" />
    </clipPath>
    <clipPath
       clipPathUnits="userSpaceOnUse"
       id="clipPath24">
      <path
         d="M 10,10 H 1768.13 V 481.488 H 10 Z"
         id="path24" />
    </clipPath>
    <clipPath
       clipPathUnits="userSpaceOnUse"
       id="clipPath26">
      <path
         d="M 10,10 H 1768.13 V 481.488 H 10 Z"
         id="path26" />
    </clipPath>
    <clipPath
       clipPathUnits="userSpaceOnUse"
       id="clipPath28">
      <path
         d="M 10,10 H 1768.13 V 481.488 H 10 Z"
         id="path28" />
    </clipPath>
    <clipPath
       clipPathUnits="userSpaceOnUse"
       id="clipPath30">
      <path
         d="M 10,10 H 1768.13 V 481.488 H 10 Z"
         id="path30" />
    </clipPath>
    <clipPath
       clipPathUnits="userSpaceOnUse"
       id="clipPath32">
      <path
         d="M 10,10 H 1768.13 V 481.488 H 10 Z"
         id="path32" />
    </clipPath>
    <clipPath
       clipPathUnits="userSpaceOnUse"
       id="clipPath34">
      <path
         d="M 10,10 H 1768.13 V 481.488 H 10 Z"
         id="path34" />
    </clipPath>
    <clipPath
       clipPathUnits="userSpaceOnUse"
       id="clipPath36">
      <path
         d="M 10,10 H 1768.13 V 481.488 H 10 Z"
         id="path36" />
    </clipPath>
    <clipPath
       clipPathUnits="userSpaceOnUse"
       id="clipPath38">
      <path
         d="M 10,10 H 1768.13 V 481.488 H 10 Z"
         id="path38" />
    </clipPath>
    <clipPath
       clipPathUnits="userSpaceOnUse"
       id="clipPath40">
      <path
         d="M 10,10 H 1768.13 V 481.488 H 10 Z"
         id="path40" />
    </clipPath>
    <clipPath
       clipPathUnits="userSpaceOnUse"
       id="clipPath42">
      <path
         d="M 10,10 H 1768.13 V 481.488 H 10 Z"
         id="path42" />
    </clipPath>
    <clipPath
       clipPathUnits="userSpaceOnUse"
       id="clipPath44">
      <path
         d="M 10,10 H 1768.13 V 481.488 H 10 Z"
         id="path44" />
    </clipPath>
    <clipPath
       clipPathUnits="userSpaceOnUse"
       id="clipPath46">
      <path
         d="M 10,10 H 1768.13 V 481.488 H 10 Z"
         id="path46" />
    </clipPath>
    <clipPath
       clipPathUnits="userSpaceOnUse"
       id="clipPath48">
      <path
         d="M 10,10 H 1768.13 V 481.488 H 10 Z"
         id="path48" />
    </clipPath>
    <clipPath
       clipPathUnits="userSpaceOnUse"
       id="clipPath50">
      <path
         d="M 10,10 H 1768.13 V 481.488 H 10 Z"
         id="path50" />
    </clipPath>
    <clipPath
       clipPathUnits="userSpaceOnUse"
       id="clipPath52">
      <path
         d="M 10,10 H 1768.13 V 481.488 H 10 Z"
         id="path52" />
    </clipPath>
    <clipPath
       clipPathUnits="userSpaceOnUse"
       id="clipPath54">
      <path
         d="M 10,10 H 1768.13 V 481.488 H 10 Z"
         id="path54" />
    </clipPath>
    <clipPath
       clipPathUnits="userSpaceOnUse"
       id="clipPath56">
      <path
         d="M 10,10 H 1768.13 V 481.488 H 10 Z"
         id="path56" />
    </clipPath>
    <clipPath
       clipPathUnits="userSpaceOnUse"
       id="clipPath58">
      <path
         d="M 10,10 H 1768.13 V 481.488 H 10 Z"
         id="path58" />
    </clipPath>
    <clipPath
       clipPathUnits="userSpaceOnUse"
       id="clipPath60">
      <path
         d="M 10,10 H 1768.13 V 481.488 H 10 Z"
         id="path60" />
    </clipPath>
    <clipPath
       clipPathUnits="userSpaceOnUse"
       id="clipPath62">
      <path
         d="M 10,10 H 1768.13 V 481.488 H 10 Z"
         id="path62" />
    </clipPath>
    <clipPath
       clipPathUnits="userSpaceOnUse"
       id="clipPath64">
      <path
         d="M 10,10 H 1768.13 V 481.488 H 10 Z"
         id="path64" />
    </clipPath>
    <clipPath
       clipPathUnits="userSpaceOnUse"
       id="clipPath66">
      <path
         d="M 10,10 H 1768.13 V 481.488 H 10 Z"
         id="path66" />
    </clipPath>
    <clipPath
       clipPathUnits="userSpaceOnUse"
       id="clipPath68">
      <path
         d="M 10,10 H 1768.13 V 481.488 H 10 Z"
         id="path68" />
    </clipPath>
    <clipPath
       clipPathUnits="userSpaceOnUse"
       id="clipPath70">
      <path
         d="M 10,10 H 1768.13 V 481.488 H 10 Z"
         id="path70" />
    </clipPath>
    <clipPath
       clipPathUnits="userSpaceOnUse"
       id="clipPath72">
      <path
         d="M 10,10 H 1768.13 V 481.488 H 10 Z"
         id="path72" />
    </clipPath>
    <clipPath
       clipPathUnits="userSpaceOnUse"
       id="clipPath74">
      <path
         d="M 10,10 H 1768.13 V 481.488 H 10 Z"
         id="path74" />
    </clipPath>
    <clipPath
       clipPathUnits="userSpaceOnUse"
       id="clipPath76">
      <path
         d="M 10,10 H 1768.13 V 481.488 H 10 Z"
         id="path76" />
    </clipPath>
    <clipPath
       clipPathUnits="userSpaceOnUse"
       id="clipPath78">
      <path
         d="M 10,10 H 1768.13 V 481.488 H 10 Z"
         id="path78" />
    </clipPath>
    <clipPath
       clipPathUnits="userSpaceOnUse"
       id="clipPath80">
      <path
         d="M 10,10 H 1768.13 V 481.488 H 10 Z"
         id="path80" />
    </clipPath>
    <clipPath
       clipPathUnits="userSpaceOnUse"
       id="clipPath82">
      <path
         d="M 10,10 H 1768.13 V 481.488 H 10 Z"
         id="path82" />
    </clipPath>
    <clipPath
       clipPathUnits="userSpaceOnUse"
       id="clipPath84">
      <path
         d="M 10,10 H 1768.13 V 481.488 H 10 Z"
         id="path84" />
    </clipPath>
    <clipPath
       clipPathUnits="userSpaceOnUse"
       id="clipPath86">
      <path
         d="M 10,10 H 1768.13 V 481.488 H 10 Z"
         id="path86" />
    </clipPath>
    <clipPath
       clipPathUnits="userSpaceOnUse"
       id="clipPath88">
      <path
         d="M 10,10 H 1768.13 V 481.488 H 10 Z"
         id="path88" />
    </clipPath>
    <clipPath
       clipPathUnits="userSpaceOnUse"
       id="clipPath90">
      <path
         d="M 10,10 H 1768.13 V 481.488 H 10 Z"
         id="path90" />
    </clipPath>
    <clipPath
       clipPathUnits="userSpaceOnUse"
       id="clipPath92">
      <path
         d="M 10,10 H 1768.13 V 481.488 H 10 Z"
         id="path92" />
    </clipPath>
    <clipPath
       clipPathUnits="userSpaceOnUse"
       id="clipPath94">
      <path
         d="M 10,10 H 1768.13 V 481.488 H 10 Z"
         id="path94" />
    </clipPath>
    <clipPath
       clipPathUnits="userSpaceOnUse"
       id="clipPath96">
      <path
         d="M 10,10 H 1768.13 V 481.488 H 10 Z"
         id="path96" />
    </clipPath>
    <clipPath
       clipPathUnits="userSpaceOnUse"
       id="clipPath98">
      <path
         d="M 10,10 H 1768.13 V 481.488 H 10 Z"
         id="path98" />
    </clipPath>
    <clipPath
       clipPathUnits="userSpaceOnUse"
       id="clipPath100">
      <path
         d="M 10,10 H 1768.13 V 481.488 H 10 Z"
         id="path100" />
    </clipPath>
    <clipPath
       clipPathUnits="userSpaceOnUse"
       id="clipPath102">
      <path
         d="M 10,10 H 1768.13 V 481.488 H 10 Z"
         id="path102" />
    </clipPath>
    <clipPath
       clipPathUnits="userSpaceOnUse"
       id="clipPath104">
      <path
         d="M 10,10 H 1768.13 V 481.488 H 10 Z"
         id="path104" />
    </clipPath>
    <clipPath
       clipPathUnits="userSpaceOnUse"
       id="clipPath106">
      <path
         d="M 10,10 H 1768.13 V 481.488 H 10 Z"
         id="path106" />
    </clipPath>
    <clipPath
       clipPathUnits="userSpaceOnUse"
       id="clipPath108">
      <path
         d="M 10,10 H 1768.13 V 481.488 H 10 Z"
         id="path108" />
    </clipPath>
    <clipPath
       clipPathUnits="userSpaceOnUse"
       id="clipPath110">
      <path
         d="M 10,10 H 1768.13 V 481.488 H 10 Z"
         id="path110" />
    </clipPath>
    <clipPath
       clipPathUnits="userSpaceOnUse"
       id="clipPath112">
      <path
         d="M 10,10 H 1768.13 V 481.488 H 10 Z"
         id="path112" />
    </clipPath>
    <clipPath
       clipPathUnits="userSpaceOnUse"
       id="clipPath114">
      <path
         d="M 10,10 H 1768.13 V 481.488 H 10 Z"
         id="path114" />
    </clipPath>
    <clipPath
       clipPathUnits="userSpaceOnUse"
       id="clipPath116">
      <path
         d="M 10,10 H 1768.13 V 481.488 H 10 Z"
         id="path116" />
    </clipPath>
    <clipPath
       clipPathUnits="userSpaceOnUse"
       id="clipPath118">
      <path
         d="M 10,10 H 1768.13 V 481.488 H 10 Z"
         id="path118" />
    </clipPath>
    <clipPath
       clipPathUnits="userSpaceOnUse"
       id="clipPath120">
      <path
         d="M 10,10 H 1768.13 V 481.488 H 10 Z"
         id="path120" />
    </clipPath>
    <clipPath
       clipPathUnits="userSpaceOnUse"
       id="clipPath122">
      <path
         d="M 10,10 H 1768.13 V 481.488 H 10 Z"
         id="path122" />
    </clipPath>
    <clipPath
       clipPathUnits="userSpaceOnUse"
       id="clipPath124">
      <path
         d="M 10,10 H 1768.13 V 481.488 H 10 Z"
         id="path124" />
    </clipPath>
    <clipPath
       clipPathUnits="userSpaceOnUse"
       id="clipPath126">
      <path
         d="M 10,10 H 1768.13 V 481.488 H 10 Z"
         id="path126" />
    </clipPath>
    <clipPath
       clipPathUnits="userSpaceOnUse"
       id="clipPath128">
      <path
         d="M 10,10 H 1768.13 V 481.488 H 10 Z"
         id="path128" />
    </clipPath>
    <clipPath
       clipPathUnits="userSpaceOnUse"
       id="clipPath130">
      <path
         d="M 10,10 H 1768.13 V 481.488 H 10 Z"
         id="path130" />
    </clipPath>
    <clipPath
       clipPathUnits="userSpaceOnUse"
       id="clipPath132">
      <path
         d="M 10,10 H 1768.13 V 481.488 H 10 Z"
         id="path132" />
    </clipPath>
    <clipPath
       clipPathUnits="userSpaceOnUse"
       id="clipPath134">
      <path
         d="M 10,10 H 1768.13 V 481.488 H 10 Z"
         id="path134" />
    </clipPath>
    <clipPath
       clipPathUnits="userSpaceOnUse"
       id="clipPath136">
      <path
         d="M 10,10 H 1768.13 V 481.488 H 10 Z"
         id="path136" />
    </clipPath>
    <clipPath
       clipPathUnits="userSpaceOnUse"
       id="clipPath138">
      <path
         d="M 10,10 H 1768.13 V 481.488 H 10 Z"
         id="path138" />
    </clipPath>
    <clipPath
       clipPathUnits="userSpaceOnUse"
       id="clipPath140">
      <path
         d="M 10,10 H 1768.13 V 481.488 H 10 Z"
         id="path140" />
    </clipPath>
    <clipPath
       clipPathUnits="userSpaceOnUse"
       id="clipPath142">
      <path
         d="M 10,10 H 1768.13 V 481.488 H 10 Z"
         id="path142" />
    </clipPath>
    <clipPath
       clipPathUnits="userSpaceOnUse"
       id="clipPath144">
      <path
         d="M 10,10 H 1768.13 V 481.488 H 10 Z"
         id="path144" />
    </clipPath>
    <clipPath
       clipPathUnits="userSpaceOnUse"
       id="clipPath146">
      <path
         d="M 10,10 H 1768.13 V 481.488 H 10 Z"
         id="path146" />
    </clipPath>
    <clipPath
       clipPathUnits="userSpaceOnUse"
       id="clipPath148">
      <path
         d="M 10,10 H 1768.13 V 481.488 H 10 Z"
         id="path148" />
    </clipPath>
    <clipPath
       clipPathUnits="userSpaceOnUse"
       id="clipPath150">
      <path
         d="M 10,10 H 1768.13 V 481.488 H 10 Z"
         id="path150" />
    </clipPath>
    <clipPath
       clipPathUnits="userSpaceOnUse"
       id="clipPath152">
      <path
         d="M 10,10 H 1768.13 V 481.488 H 10 Z"
         id="path152" />
    </clipPath>
    <clipPath
       clipPathUnits="userSpaceOnUse"
       id="clipPath154">
      <path
         d="M 10,10 H 1768.13 V 481.488 H 10 Z"
         id="path154" />
    </clipPath>
    <clipPath
       clipPathUnits="userSpaceOnUse"
       id="clipPath156">
      <path
         d="M 10,10 H 1768.13 V 481.488 H 10 Z"
         id="path156" />
    </clipPath>
    <clipPath
       clipPathUnits="userSpaceOnUse"
       id="clipPath158">
      <path
         d="M 10,10 H 1768.13 V 481.488 H 10 Z"
         id="path158" />
    </clipPath>
    <clipPath
       clipPathUnits="userSpaceOnUse"
       id="clipPath160">
      <path
         d="M 10,10 H 1768.13 V 481.488 H 10 Z"
         id="path160" />
    </clipPath>
  </defs>
  <sodipodi:namedview
     id="namedview1"
     pagecolor="#505050"
     bordercolor="#ffffff"
     borderopacity="1"
     inkscape:showpageshadow="0"
     inkscape:pageopacity="0"
     inkscape:pagecheckerboard="1"
     inkscape:deskcolor="#505050">
    <inkscape:page
       x="0"
       y="0"
       inkscape:label="1"
       id="page1"
       width="236"
       height="65.333336"
       margin="0"
       bleed="0" />
  </sodipodi:namedview>
  <g
     id="g1"
     inkscape:groupmode="layer"
     inkscape:label="1">
    <path
       id="path1"
       d="m 11.5312,137.93 v 60.511 h 38.6797 v -8.242 H 20.7188 V 172.52 h 25.1523 v -8.161 H 20.7188 V 146.172 H 50.2109 V 137.93 H 11.5312"
       style="fill:#231f20;fill-opacity:1;fill-rule:nonzero;stroke:none"
       transform="matrix(0.13333333,0,0,-0.13333333,0,65.333333)"
       clip-path="url(#clipPath2)" />
    <path
       id="path3"
       d="m 61.8516,137.93 v 43.09 h 8.6679 v -43.09 z m -0.25,51.601 v 9.168 h 9.1796 v -9.168 h -9.1796"
       style="fill:#231f20;fill-opacity:1;fill-rule:nonzero;stroke:none"
       transform="matrix(0.13333333,0,0,-0.13333333,0,65.333333)"
       clip-path="url(#clipPath4)" />
    <path
       id="path5"
       d="m 100.02,173.801 c -7.9106,0 -9.0083,-6.629 -9.0083,-14.281 0,-7.641 1.0977,-14.36 9.0083,-14.36 7.82,0 8.921,6.711 8.921,14.36 0,7.652 -1.113,14.281 -8.921,14.281 z m 9.089,-35.871 v 4.59 c -3.23,-3.911 -6.711,-5.098 -11.3902,-5.098 -4.3282,0 -8.1602,1.437 -10.5391,3.816 -4.1602,4.25 -4.8399,11.133 -4.8399,18.274 0,7.058 0.6797,13.937 4.8399,18.187 2.3789,2.379 6.1211,3.821 10.4492,3.821 4.5901,0 8.1601,-1.098 11.3011,-4.84 v 21.761 h 8.672 V 137.93 h -8.5"
       style="fill:#231f20;fill-opacity:1;fill-rule:nonzero;stroke:none"
       transform="matrix(0.13333333,0,0,-0.13333333,0,65.333333)"
       clip-path="url(#clipPath6)" />
    <path
       id="path7"
       d="m 146.941,173.801 c -7.82,0 -8.839,-6.711 -8.839,-13.512 0,-6.801 1.019,-13.519 8.839,-13.519 7.821,0 8.75,6.71 8.75,13.519 0,6.801 -0.929,13.512 -8.75,13.512 z M 145.922,120 c -6.543,0 -10.711,1.531 -15.211,5.691 l 5.527,5.528 c 2.723,-2.547 5.102,-3.821 9.34,-3.821 7.313,0 10.121,5.18 10.121,10.961 v 5.52 c -3.14,-3.738 -6.711,-4.93 -11.14,-4.93 -4.329,0 -7.899,1.449 -10.278,3.821 -4.172,4.16 -4.84,10.199 -4.84,17.511 0,7.309 0.68,13.34 4.84,17.508 2.379,2.383 6.039,3.731 10.367,3.731 4.59,0 8.071,-1.18 11.301,-5.098 v 4.59 h 8.41 v -42.84 c 0,-10.543 -6.961,-18.192 -18.437,-18.192"
       style="fill:#231f20;fill-opacity:1;fill-rule:nonzero;stroke:none"
       transform="matrix(0.13333333,0,0,-0.13333333,0,65.333333)"
       clip-path="url(#clipPath8)" />
    <path
       id="path9"
       d="m 202.781,168.871 c -1.441,3.231 -4.422,5.438 -8.5,5.438 -4.16,0 -7.14,-2.207 -8.582,-5.438 -0.847,-1.871 -1.019,-3.23 -1.109,-5.859 h 19.379 c -0.168,2.629 -0.34,4 -1.199,5.859 z M 184.59,156.969 c 0,-7.481 3.832,-12.071 10.969,-12.071 4.839,0 7.39,1.364 10.453,4.422 l 5.519,-5.179 c -4.422,-4.422 -8.59,-6.711 -16.152,-6.711 -10.801,0 -19.379,5.699 -19.379,22.09 0,14.031 7.23,22.011 18.27,22.011 11.558,0 18.269,-8.32 18.269,-20.91 v -3.652 h -27.961"
       style="fill:#231f20;fill-opacity:1;fill-rule:nonzero;stroke:none"
       transform="matrix(0.13333333,0,0,-0.13333333,0,65.333333)"
       clip-path="url(#clipPath10)" />
    <path
       id="path11"
       d="m 250.379,137.93 v 26.269 c 0,6.711 -3.82,9.602 -8.668,9.602 -4.84,0 -8.93,-2.981 -8.93,-9.602 V 137.93 h -8.672 v 43.09 h 8.5 v -4.34 c 2.981,3.23 7.141,4.84 11.469,4.84 4.422,0 8.07,-1.442 10.633,-3.899 3.309,-3.23 4.34,-7.312 4.34,-12.16 v -27.539 h -8.672"
       style="fill:#231f20;fill-opacity:1;fill-rule:nonzero;stroke:none"
       transform="matrix(0.13333333,0,0,-0.13333333,0,65.333333)"
       clip-path="url(#clipPath12)" />
    <path
       id="path13"
       d="m 293.648,189.27 v 9.179 h 7.821 v -9.179 z m 1.102,-17.93 c -1.609,1.609 -3.82,2.461 -6.371,2.461 -2.551,0 -4.668,-0.852 -6.289,-2.461 -2.641,-2.641 -2.969,-7.141 -2.969,-11.82 0,-4.668 0.34,-9.18 2.969,-11.809 1.621,-1.621 3.738,-2.551 6.289,-2.551 2.551,0 4.762,0.93 6.371,2.551 2.641,2.629 2.98,7.141 2.98,11.809 0,4.679 -0.339,9.179 -2.98,11.82 z m -19.461,17.93 v 9.179 h 7.82 v -9.179 z m 26.012,-46.75 c -2.813,-2.891 -7.063,-5.098 -12.922,-5.098 -5.859,0 -10.027,2.207 -12.828,5.098 -4.082,4.25 -5.102,9.691 -5.102,17 0,7.23 1.02,12.671 5.102,16.91 2.801,2.89 6.969,5.101 12.828,5.101 5.859,0 10.109,-2.211 12.922,-5.101 4.07,-4.25 5.09,-9.692 5.09,-16.91 0,-7.309 -1.02,-12.75 -5.09,-17"
       style="fill:#231f20;fill-opacity:1;fill-rule:nonzero;stroke:none"
       transform="matrix(0.13333333,0,0,-0.13333333,0,65.333333)"
       clip-path="url(#clipPath14)" />
    <path
       id="path15"
       d="m 332.16,137.43 c -7.051,0 -13.012,1.191 -18.101,6.199 l 5.691,5.691 c 3.48,-3.57 8.16,-4.5 12.41,-4.5 5.36,0 9.442,1.871 9.442,5.95 0,2.98 -1.622,4.679 -5.782,5.101 l -6.89,0.598 c -8.16,0.761 -12.75,4.332 -12.75,11.89 0,8.5 7.23,13.172 16.23,13.172 6.539,0 11.981,-1.359 15.981,-4.84 l -5.442,-5.519 c -2.719,2.289 -6.539,3.137 -10.621,3.137 -5.269,0 -7.816,-2.207 -7.816,-5.528 0,-2.98 1.699,-4.5 5.949,-4.929 l 6.039,-0.512 c 8.93,-0.762 13.602,-4.668 13.602,-12.231 0,-9.007 -7.653,-13.679 -17.93,-13.679"
       style="fill:#231f20;fill-opacity:1;fill-rule:nonzero;stroke:none"
       transform="matrix(0.13333333,0,0,-0.13333333,0,65.333333)"
       clip-path="url(#clipPath16)" />
    <path
       id="path17"
       d="m 374.23,137.43 c -7.058,0 -13.011,1.191 -18.109,6.199 l 5.699,5.691 c 3.489,-3.57 8.16,-4.5 12.41,-4.5 5.348,0 9.43,1.871 9.43,5.95 0,2.98 -1.609,4.679 -5.781,5.101 l -6.891,0.598 c -8.16,0.761 -12.75,4.332 -12.75,11.89 0,8.5 7.231,13.172 16.231,13.172 6.543,0 11.98,-1.359 15.98,-4.84 l -5.437,-5.519 c -2.723,2.289 -6.543,3.137 -10.621,3.137 -5.27,0 -7.821,-2.207 -7.821,-5.528 0,-2.98 1.7,-4.5 5.95,-4.929 l 6.039,-0.512 c 8.929,-0.762 13.601,-4.668 13.601,-12.231 0,-9.007 -7.64,-13.679 -17.93,-13.679"
       style="fill:#231f20;fill-opacity:1;fill-rule:nonzero;stroke:none"
       transform="matrix(0.13333333,0,0,-0.13333333,0,65.333333)"
       clip-path="url(#clipPath18)" />
    <path
       id="path19"
       d="m 402.789,137.93 v 43.09 h 8.66 v -43.09 z m -0.25,51.601 v 9.168 h 9.18 v -9.168 h -9.18"
       style="fill:#231f20;fill-opacity:1;fill-rule:nonzero;stroke:none"
       transform="matrix(0.13333333,0,0,-0.13333333,0,65.333333)"
       clip-path="url(#clipPath20)" />
    <path
       id="path21"
       d="m 439.25,137.43 c -7.059,0 -13.012,1.191 -18.109,6.199 l 5.687,5.691 c 3.492,-3.57 8.16,-4.5 12.41,-4.5 5.352,0 9.434,1.871 9.434,5.95 0,2.98 -1.621,4.679 -5.781,5.101 L 436,156.469 c -8.16,0.761 -12.75,4.332 -12.75,11.89 0,8.5 7.23,13.172 16.238,13.172 6.543,0 11.981,-1.359 15.981,-4.84 l -5.438,-5.519 c -2.722,2.289 -6.543,3.137 -10.621,3.137 -5.269,0 -7.82,-2.207 -7.82,-5.528 0,-2.98 1.699,-4.5 5.949,-4.929 l 6.039,-0.512 c 8.934,-0.762 13.602,-4.668 13.602,-12.231 0,-9.007 -7.649,-13.679 -17.93,-13.679"
       style="fill:#231f20;fill-opacity:1;fill-rule:nonzero;stroke:none"
       transform="matrix(0.13333333,0,0,-0.13333333,0,65.333333)"
       clip-path="url(#clipPath22)" />
    <path
       id="path23"
       d="m 484.801,137.43 c -9.692,0 -19.211,5.949 -19.211,22.09 0,16.152 9.519,22.011 19.211,22.011 5.949,0 10.109,-1.703 14.199,-6.031 l -5.949,-5.781 c -2.723,2.972 -4.852,4.082 -8.25,4.082 -3.321,0 -6.121,-1.36 -7.992,-3.821 -1.868,-2.378 -2.547,-5.441 -2.547,-10.46 0,-5.008 0.679,-8.161 2.547,-10.54 1.871,-2.46 4.671,-3.82 7.992,-3.82 3.398,0 5.527,1.11 8.25,4.078 L 499,143.551 c -4.078,-4.34 -8.238,-6.121 -14.199,-6.121"
       style="fill:#231f20;fill-opacity:1;fill-rule:nonzero;stroke:none"
       transform="matrix(0.13333333,0,0,-0.13333333,0,65.333333)"
       clip-path="url(#clipPath24)" />
    <path
       id="path25"
       d="m 535.379,137.93 v 26.269 c 0,6.711 -3.82,9.602 -8.668,9.602 -4.84,0 -8.93,-2.981 -8.93,-9.602 V 137.93 h -8.672 v 60.511 h 8.672 V 176.68 c 2.891,3.23 6.879,4.84 11.297,4.84 4.422,0 8.07,-1.442 10.633,-3.899 3.309,-3.23 4.34,-7.312 4.34,-12.16 v -27.539 h -8.672"
       style="fill:#231f20;fill-opacity:1;fill-rule:nonzero;stroke:none"
       transform="matrix(0.13333333,0,0,-0.13333333,0,65.333333)"
       clip-path="url(#clipPath26)" />
    <path
       id="path27"
       d="m 582.051,168.871 c -1.449,3.231 -4.422,5.438 -8.5,5.438 -4.16,0 -7.141,-2.207 -8.59,-5.438 -0.852,-1.871 -1.02,-3.23 -1.109,-5.859 h 19.378 c -0.171,2.629 -0.339,4 -1.191,5.859 z m -18.192,-11.902 c 0,-7.481 3.832,-12.071 10.969,-12.071 4.844,0 7.391,1.364 10.453,4.422 l 5.52,-5.179 c -4.422,-4.422 -8.582,-6.711 -16.153,-6.711 -10.796,0 -19.378,5.699 -19.378,22.09 0,14.031 7.23,22.011 18.281,22.011 11.551,0 18.269,-8.32 18.269,-20.91 v -3.652 h -27.961"
       style="fill:#231f20;fill-opacity:1;fill-rule:nonzero;stroke:none"
       transform="matrix(0.13333333,0,0,-0.13333333,0,65.333333)"
       clip-path="url(#clipPath28)" />
    <path
       id="path29"
       d="M 645.379,190.199 V 137.93 h -9.18 v 52.269 h -16.66 v 8.242 h 42.5 v -8.242 h -16.66"
       style="fill:#231f20;fill-opacity:1;fill-rule:nonzero;stroke:none"
       transform="matrix(0.13333333,0,0,-0.13333333,0,65.333333)"
       clip-path="url(#clipPath30)" />
    <path
       id="path31"
       d="m 689.32,168.871 c -1.449,3.231 -4.422,5.438 -8.5,5.438 -4.16,0 -7.14,-2.207 -8.582,-5.438 -0.847,-1.871 -1.019,-3.23 -1.109,-5.859 h 19.383 c -0.172,2.629 -0.34,4 -1.192,5.859 z m -18.191,-11.902 c 0,-7.481 3.832,-12.071 10.973,-12.071 4.839,0 7.386,1.364 10.449,4.422 l 5.519,-5.179 c -4.422,-4.422 -8.582,-6.711 -16.14,-6.711 -10.801,0 -19.379,5.699 -19.379,22.09 0,14.031 7.219,22.011 18.269,22.011 11.559,0 18.27,-8.32 18.27,-20.91 v -3.652 h -27.961"
       style="fill:#231f20;fill-opacity:1;fill-rule:nonzero;stroke:none"
       transform="matrix(0.13333333,0,0,-0.13333333,0,65.333333)"
       clip-path="url(#clipPath32)" />
    <path
       id="path33"
       d="m 727.66,137.43 c -9.691,0 -19.211,5.949 -19.211,22.09 0,16.152 9.52,22.011 19.211,22.011 5.949,0 10.11,-1.703 14.199,-6.031 l -5.949,-5.781 c -2.719,2.972 -4.851,4.082 -8.25,4.082 -3.32,0 -6.121,-1.36 -7.988,-3.821 -1.871,-2.378 -2.551,-5.441 -2.551,-10.46 0,-5.008 0.68,-8.161 2.551,-10.54 1.867,-2.46 4.668,-3.82 7.988,-3.82 3.399,0 5.531,1.11 8.25,4.078 l 5.949,-5.687 c -4.078,-4.34 -8.238,-6.121 -14.199,-6.121"
       style="fill:#231f20;fill-opacity:1;fill-rule:nonzero;stroke:none"
       transform="matrix(0.13333333,0,0,-0.13333333,0,65.333333)"
       clip-path="url(#clipPath34)" />
    <path
       id="path35"
       d="m 778.23,137.93 v 26.269 c 0,6.711 -3.82,9.602 -8.66,9.602 -4.84,0 -8.929,-2.981 -8.929,-9.602 V 137.93 h -8.672 v 60.511 h 8.672 V 176.68 c 2.89,3.23 6.879,4.84 11.3,4.84 4.43,0 8.079,-1.442 10.629,-3.899 3.321,-3.23 4.34,-7.312 4.34,-12.16 v -27.539 h -8.672"
       style="fill:#231f20;fill-opacity:1;fill-rule:nonzero;stroke:none"
       transform="matrix(0.13333333,0,0,-0.13333333,0,65.333333)"
       clip-path="url(#clipPath36)" />
    <path
       id="path37"
       d="m 826.602,137.93 v 26.269 c 0,6.711 -3.821,9.602 -8.672,9.602 -4.84,0 -8.93,-2.981 -8.93,-9.602 V 137.93 h -8.672 v 43.09 h 8.5 v -4.34 c 2.973,3.23 7.141,4.84 11.473,4.84 4.418,0 8.07,-1.442 10.629,-3.899 3.308,-3.23 4.34,-7.312 4.34,-12.16 v -27.539 h -8.668"
       style="fill:#231f20;fill-opacity:1;fill-rule:nonzero;stroke:none"
       transform="matrix(0.13333333,0,0,-0.13333333,0,65.333333)"
       clip-path="url(#clipPath38)" />
    <path
       id="path39"
       d="m 848.699,137.93 v 43.09 h 8.672 v -43.09 z m -0.25,51.601 v 9.168 h 9.18 v -9.168 h -9.18"
       style="fill:#231f20;fill-opacity:1;fill-rule:nonzero;stroke:none"
       transform="matrix(0.13333333,0,0,-0.13333333,0,65.333333)"
       clip-path="url(#clipPath40)" />
    <path
       id="path41"
       d="m 885.172,137.43 c -7.063,0 -13.012,1.191 -18.113,6.199 l 5.691,5.691 c 3.488,-3.57 8.16,-4.5 12.41,-4.5 5.352,0 9.43,1.871 9.43,5.95 0,2.98 -1.621,4.679 -5.781,5.101 l -6.887,0.598 c -8.16,0.761 -12.75,4.332 -12.75,11.89 0,8.5 7.226,13.172 16.238,13.172 6.539,0 11.981,-1.359 15.981,-4.84 l -5.442,-5.519 c -2.719,2.289 -6.539,3.137 -10.621,3.137 -5.269,0 -7.816,-2.207 -7.816,-5.528 0,-2.98 1.699,-4.5 5.949,-4.929 l 6.039,-0.512 c 8.93,-0.762 13.602,-4.668 13.602,-12.231 0,-9.007 -7.653,-13.679 -17.93,-13.679"
       style="fill:#231f20;fill-opacity:1;fill-rule:nonzero;stroke:none"
       transform="matrix(0.13333333,0,0,-0.13333333,0,65.333333)"
       clip-path="url(#clipPath42)" />
    <path
       id="path43"
       d="m 930.719,137.43 c -9.688,0 -19.207,5.949 -19.207,22.09 0,16.152 9.519,22.011 19.207,22.011 5.953,0 10.109,-1.703 14.203,-6.031 l -5.953,-5.781 c -2.719,2.972 -4.848,4.082 -8.25,4.082 -3.321,0 -6.117,-1.36 -7.989,-3.821 -1.871,-2.378 -2.55,-5.441 -2.55,-10.46 0,-5.008 0.679,-8.161 2.55,-10.54 1.872,-2.46 4.668,-3.82 7.989,-3.82 3.402,0 5.531,1.11 8.25,4.078 l 5.953,-5.687 c -4.082,-4.34 -8.242,-6.121 -14.203,-6.121"
       style="fill:#231f20;fill-opacity:1;fill-rule:nonzero;stroke:none"
       transform="matrix(0.13333333,0,0,-0.13333333,0,65.333333)"
       clip-path="url(#clipPath44)" />
    <path
       id="path45"
       d="m 981.289,137.93 v 26.269 c 0,6.711 -3.82,9.602 -8.66,9.602 -4.848,0 -8.93,-2.981 -8.93,-9.602 V 137.93 h -8.66 v 60.511 h 8.66 V 176.68 c 2.891,3.23 6.891,4.84 11.301,4.84 4.43,0 8.078,-1.442 10.629,-3.899 3.32,-3.23 4.34,-7.312 4.34,-12.16 v -27.539 h -8.668"
       style="fill:#231f20;fill-opacity:1;fill-rule:nonzero;stroke:none"
       transform="matrix(0.13333333,0,0,-0.13333333,0,65.333333)"
       clip-path="url(#clipPath46)" />
    <path
       id="path47"
       d="m 1027.96,168.871 c -1.44,3.231 -4.42,5.438 -8.49,5.438 -4.17,0 -7.14,-2.207 -8.59,-5.438 -0.85,-1.871 -1.02,-3.23 -1.11,-5.859 h 19.39 c -0.18,2.629 -0.35,4 -1.2,5.859 z m -18.19,-11.902 c 0,-7.481 3.83,-12.071 10.96,-12.071 4.85,0 7.39,1.364 10.46,4.422 l 5.52,-5.179 c -4.42,-4.422 -8.59,-6.711 -16.15,-6.711 -10.8,0 -19.38,5.699 -19.38,22.09 0,14.031 7.23,22.011 18.28,22.011 11.56,0 18.27,-8.32 18.27,-20.91 v -3.652 h -27.96"
       style="fill:#231f20;fill-opacity:1;fill-rule:nonzero;stroke:none"
       transform="matrix(0.13333333,0,0,-0.13333333,0,65.333333)"
       clip-path="url(#clipPath48)" />
    <path
       id="path49"
       d="m 1104.55,137.93 v 26.429 h -24.56 V 137.93 h -9.18 v 60.511 h 9.18 v -25.832 h 24.56 v 25.832 h 9.18 V 137.93 h -9.18"
       style="fill:#231f20;fill-opacity:1;fill-rule:nonzero;stroke:none"
       transform="matrix(0.13333333,0,0,-0.13333333,0,65.333333)"
       clip-path="url(#clipPath50)" />
    <path
       id="path51"
       d="m 1150.87,171.34 c -1.61,1.609 -3.82,2.461 -6.37,2.461 -2.55,0 -4.67,-0.852 -6.29,-2.461 -2.63,-2.641 -2.97,-7.141 -2.97,-11.82 0,-4.668 0.34,-9.18 2.97,-11.809 1.62,-1.621 3.74,-2.551 6.29,-2.551 2.55,0 4.76,0.93 6.37,2.551 2.64,2.629 2.98,7.141 2.98,11.809 0,4.679 -0.34,9.179 -2.98,11.82 z m 6.55,-28.82 c -2.81,-2.891 -7.05,-5.098 -12.92,-5.098 -5.86,0 -10.03,2.207 -12.83,5.098 -4.08,4.25 -5.1,9.691 -5.1,17 0,7.23 1.02,12.671 5.1,16.91 2.8,2.89 6.97,5.101 12.83,5.101 5.87,0 10.11,-2.211 12.92,-5.101 4.08,-4.25 5.1,-9.692 5.1,-16.91 0,-7.309 -1.02,-12.75 -5.1,-17"
       style="fill:#231f20;fill-opacity:1;fill-rule:nonzero;stroke:none"
       transform="matrix(0.13333333,0,0,-0.13333333,0,65.333333)"
       clip-path="url(#clipPath52)" />
    <path
       id="path53"
       d="m 1191.33,137.43 c -9.68,0 -19.21,5.949 -19.21,22.09 0,16.152 9.53,22.011 19.21,22.011 5.95,0 10.12,-1.703 14.19,-6.031 l -5.94,-5.781 c -2.72,2.972 -4.85,4.082 -8.25,4.082 -3.31,0 -6.12,-1.36 -7.99,-3.821 -1.87,-2.378 -2.54,-5.441 -2.54,-10.46 0,-5.008 0.67,-8.161 2.54,-10.54 1.87,-2.46 4.68,-3.82 7.99,-3.82 3.4,0 5.53,1.11 8.25,4.078 l 5.94,-5.687 c -4.07,-4.34 -8.24,-6.121 -14.19,-6.121"
       style="fill:#231f20;fill-opacity:1;fill-rule:nonzero;stroke:none"
       transform="matrix(0.13333333,0,0,-0.13333333,0,65.333333)"
       clip-path="url(#clipPath54)" />
    <path
       id="path55"
       d="m 1241.89,137.93 v 26.269 c 0,6.711 -3.81,9.602 -8.66,9.602 -4.85,0 -8.92,-2.981 -8.92,-9.602 V 137.93 h -8.67 v 60.511 h 8.67 V 176.68 c 2.89,3.23 6.88,4.84 11.3,4.84 4.42,0 8.07,-1.442 10.62,-3.899 3.31,-3.23 4.34,-7.312 4.34,-12.16 v -27.539 h -8.68"
       style="fill:#231f20;fill-opacity:1;fill-rule:nonzero;stroke:none"
       transform="matrix(0.13333333,0,0,-0.13333333,0,65.333333)"
       clip-path="url(#clipPath56)" />
    <path
       id="path57"
       d="m 1277.94,137.43 c -7.05,0 -13,1.191 -18.11,6.199 l 5.71,5.691 c 3.47,-3.57 8.15,-4.5 12.4,-4.5 5.36,0 9.43,1.871 9.43,5.95 0,2.98 -1.61,4.679 -5.78,5.101 l -6.87,0.598 c -8.17,0.761 -12.76,4.332 -12.76,11.89 0,8.5 7.23,13.172 16.23,13.172 6.56,0 12,-1.359 15.99,-4.84 l -5.44,-5.519 c -2.72,2.289 -6.55,3.137 -10.62,3.137 -5.28,0 -7.83,-2.207 -7.83,-5.528 0,-2.98 1.7,-4.5 5.95,-4.929 l 6.04,-0.512 c 8.92,-0.762 13.6,-4.668 13.6,-12.231 0,-9.007 -7.66,-13.679 -17.94,-13.679"
       style="fill:#231f20;fill-opacity:1;fill-rule:nonzero;stroke:none"
       transform="matrix(0.13333333,0,0,-0.13333333,0,65.333333)"
       clip-path="url(#clipPath58)" />
    <path
       id="path59"
       d="m 1323.51,137.43 c -9.7,0 -19.21,5.949 -19.21,22.09 0,16.152 9.51,22.011 19.21,22.011 5.94,0 10.1,-1.703 14.19,-6.031 l -5.95,-5.781 c -2.73,2.972 -4.85,4.082 -8.24,4.082 -3.32,0 -6.13,-1.36 -8,-3.821 -1.87,-2.378 -2.55,-5.441 -2.55,-10.46 0,-5.008 0.68,-8.161 2.55,-10.54 1.87,-2.46 4.68,-3.82 8,-3.82 3.39,0 5.51,1.11 8.24,4.078 l 5.95,-5.687 c -4.09,-4.34 -8.25,-6.121 -14.19,-6.121"
       style="fill:#231f20;fill-opacity:1;fill-rule:nonzero;stroke:none"
       transform="matrix(0.13333333,0,0,-0.13333333,0,65.333333)"
       clip-path="url(#clipPath60)" />
    <path
       id="path61"
       d="m 1374.07,137.93 v 26.269 c 0,6.711 -3.82,9.602 -8.67,9.602 -4.84,0 -8.92,-2.981 -8.92,-9.602 V 137.93 h -8.67 v 60.511 h 8.67 V 176.68 c 2.9,3.23 6.89,4.84 11.3,4.84 4.43,0 8.08,-1.442 10.63,-3.899 3.32,-3.23 4.33,-7.312 4.33,-12.16 v -27.539 h -8.67"
       style="fill:#231f20;fill-opacity:1;fill-rule:nonzero;stroke:none"
       transform="matrix(0.13333333,0,0,-0.13333333,0,65.333333)"
       clip-path="url(#clipPath62)" />
    <path
       id="path63"
       d="m 1422.18,137.93 v 4.34 c -2.97,-3.231 -7.14,-4.84 -11.48,-4.84 -4.41,0 -8.07,1.441 -10.62,3.91 -3.31,3.23 -4.34,7.308 -4.34,12.148 v 27.543 h 8.67 V 154.77 c 0,-6.711 3.83,-9.598 8.68,-9.598 4.84,0 8.92,2.976 8.92,9.598 v 26.261 h 8.66 v -43.09 h -8.49"
       style="fill:#231f20;fill-opacity:1;fill-rule:nonzero;stroke:none"
       transform="matrix(0.13333333,0,0,-0.13333333,0,65.333333)"
       clip-path="url(#clipPath64)" />
    <path
       id="path65"
       d="m 1456.1,137.93 c -8.25,0 -11.81,5.519 -11.81,11.898 v 48.613 h 8.67 V 150.34 c 0,-3.32 1.18,-5.02 4.67,-5.02 h 3.83 v -7.39 h -5.36"
       style="fill:#231f20;fill-opacity:1;fill-rule:nonzero;stroke:none"
       transform="matrix(0.13333333,0,0,-0.13333333,0,65.333333)"
       clip-path="url(#clipPath66)" />
    <path
       id="path67"
       d="m 1494.78,168.871 c -1.45,3.231 -4.42,5.438 -8.5,5.438 -4.17,0 -7.14,-2.207 -8.58,-5.438 -0.85,-1.871 -1.03,-3.23 -1.11,-5.859 h 19.38 c -0.17,2.629 -0.34,4 -1.19,5.859 z m -18.19,-11.902 c 0,-7.481 3.82,-12.071 10.96,-12.071 4.84,0 7.4,1.364 10.46,4.422 l 5.53,-5.179 c -4.43,-4.422 -8.59,-6.711 -16.16,-6.711 -10.79,0 -19.37,5.699 -19.37,22.09 0,14.031 7.21,22.011 18.27,22.011 11.55,0 18.27,-8.32 18.27,-20.91 v -3.652 h -27.96"
       style="fill:#231f20;fill-opacity:1;fill-rule:nonzero;stroke:none"
       transform="matrix(0.13333333,0,0,-0.13333333,0,65.333333)"
       clip-path="url(#clipPath68)" />
    <path
       id="path69"
       d="m 1533.79,137.93 v 7.91 l 27.96,44.359 h -26.77 v 8.242 h 37.56 v -7.48 l -28.13,-44.789 h 28.13 v -8.242 h -38.75"
       style="fill:#231f20;fill-opacity:1;fill-rule:nonzero;stroke:none"
       transform="matrix(0.13333333,0,0,-0.13333333,0,65.333333)"
       clip-path="url(#clipPath70)" />
    <path
       id="path71"
       d="m 1605.77,189.27 v 9.179 h 7.82 v -9.179 z m -18.35,0 v 9.179 h 7.81 v -9.179 z m 22.18,-51.34 v 4.34 c -2.97,-3.231 -7.14,-4.84 -11.47,-4.84 -4.42,0 -8.08,1.441 -10.63,3.91 -3.31,3.23 -4.34,7.308 -4.34,12.148 v 27.543 h 8.68 V 154.77 c 0,-6.711 3.82,-9.598 8.67,-9.598 4.84,0 8.92,2.976 8.92,9.598 v 26.261 h 8.67 v -43.09 h -8.5"
       style="fill:#231f20;fill-opacity:1;fill-rule:nonzero;stroke:none"
       transform="matrix(0.13333333,0,0,-0.13333333,0,65.333333)"
       clip-path="url(#clipPath72)" />
    <path
       id="path73"
       d="m 1655.66,170.91 c -1.95,1.949 -3.48,2.891 -6.45,2.891 -4.68,0 -8.58,-3.742 -8.58,-9.692 V 137.93 h -8.68 v 43.09 h 8.5 v -4.668 c 2.22,3.058 6.63,5.179 11.47,5.179 4.17,0 7.32,-1.101 10.29,-4.07 l -6.55,-6.539"
       style="fill:#231f20;fill-opacity:1;fill-rule:nonzero;stroke:none"
       transform="matrix(0.13333333,0,0,-0.13333333,0,65.333333)"
       clip-path="url(#clipPath74)" />
    <path
       id="path75"
       d="m 1669.36,137.93 v 43.09 h 8.67 v -43.09 z m -0.26,51.601 v 9.168 h 9.18 v -9.168 h -9.18"
       style="fill:#231f20;fill-opacity:1;fill-rule:nonzero;stroke:none"
       transform="matrix(0.13333333,0,0,-0.13333333,0,65.333333)"
       clip-path="url(#clipPath76)" />
    <path
       id="path77"
       d="m 1708.89,137.43 c -9.7,0 -19.21,5.949 -19.21,22.09 0,16.152 9.51,22.011 19.21,22.011 5.94,0 10.1,-1.703 14.19,-6.031 l -5.95,-5.781 c -2.73,2.972 -4.84,4.082 -8.24,4.082 -3.32,0 -6.13,-1.36 -8,-3.821 -1.87,-2.378 -2.55,-5.441 -2.55,-10.46 0,-5.008 0.68,-8.161 2.55,-10.54 1.87,-2.46 4.68,-3.82 8,-3.82 3.4,0 5.51,1.11 8.24,4.078 l 5.95,-5.687 c -4.09,-4.34 -8.25,-6.121 -14.19,-6.121"
       style="fill:#231f20;fill-opacity:1;fill-rule:nonzero;stroke:none"
       transform="matrix(0.13333333,0,0,-0.13333333,0,65.333333)"
       clip-path="url(#clipPath78)" />
    <path
       id="path79"
       d="m 1759.45,137.93 v 26.269 c 0,6.711 -3.82,9.602 -8.66,9.602 -4.85,0 -8.92,-2.981 -8.92,-9.602 V 137.93 h -8.68 v 60.511 h 8.68 V 176.68 c 2.89,3.23 6.88,4.84 11.29,4.84 4.43,0 8.08,-1.442 10.63,-3.899 3.31,-3.23 4.34,-7.312 4.34,-12.16 v -27.539 h -8.68"
       style="fill:#231f20;fill-opacity:1;fill-rule:nonzero;stroke:none"
       transform="matrix(0.13333333,0,0,-0.13333333,0,65.333333)"
       clip-path="url(#clipPath80)" />
    <path
       id="path81"
       d="m 31.4219,27.4297 c -9.1016,0 -15.5625,2.1289 -21.4219,7.9922 l 6.0391,6.039 c 4.4218,-4.4218 9.4297,-5.8593 15.5507,-5.8593 8,0 12.5,3.3984 12.5,9.3398 0,2.7188 -0.6796,4.8398 -2.3789,6.2891 -1.5312,1.3593 -3.5703,2.1289 -6.6328,2.5507 l -7.1367,1.0196 c -4.9297,0.7695 -8.75,2.3008 -11.3906,4.8476 -2.9727,2.7227 -4.5,6.6328 -4.5,11.6407 0,10.539 7.6484,17.6797 20.2304,17.6797 8.0704,0 13.5977,-2.0391 18.7774,-6.8907 l -5.7774,-5.7773 c -3.7421,3.5703 -8.1601,4.6797 -13.3398,4.6797 -7.1406,0 -10.9609,-3.9102 -10.9609,-9.4414 0,-2.211 0.5898,-4.25 2.1992,-5.6094 1.5312,-1.3594 3.3203,-2.2109 6.6289,-2.7188 l 7.2226,-1.1093 c 5.5274,-0.8516 8.5782,-2.1211 11.2188,-4.5 3.2305,-2.9727 4.9297,-7.1407 4.9297,-12.4102 0,-11.1328 -9.0195,-17.7617 -21.7578,-17.7617"
       style="fill:#231f20;fill-opacity:1;fill-rule:nonzero;stroke:none"
       transform="matrix(0.13333333,0,0,-0.13333333,0,65.333333)"
       clip-path="url(#clipPath82)" />
    <path
       id="path83"
       d="M 106.73,27.9297 H 99.3398 L 89.2305,58.0195 79.1992,27.9297 H 71.7188 L 58.3711,71.0195 h 9.1797 l 8.3281,-30.3398 10.0313,30.3398 h 6.7109 l 9.9379,-30.3398 8.332,30.3398 h 9.269 L 106.73,27.9297"
       style="fill:#231f20;fill-opacity:1;fill-rule:nonzero;stroke:none"
       transform="matrix(0.13333333,0,0,-0.13333333,0,65.333333)"
       clip-path="url(#clipPath84)" />
    <path
       id="path85"
       d="m 127.809,27.9297 v 43.0898 h 8.671 V 27.9297 Z m -0.25,51.6015 v 9.168 h 9.179 v -9.168 h -9.179"
       style="fill:#231f20;fill-opacity:1;fill-rule:nonzero;stroke:none"
       transform="matrix(0.13333333,0,0,-0.13333333,0,65.333333)"
       clip-path="url(#clipPath86)" />
    <path
       id="path87"
       d="m 164.281,27.4297 c -7.051,0 -13.011,1.1914 -18.109,6.1992 l 5.699,5.6914 c 3.481,-3.5703 8.16,-4.5 12.41,-4.5 5.348,0 9.43,1.8711 9.43,5.9492 0,2.9805 -1.609,4.6797 -5.781,5.1016 l -6.879,0.5977 c -8.16,0.7617 -12.75,4.332 -12.75,11.8906 0,8.5 7.23,13.1718 16.23,13.1718 6.539,0 11.981,-1.3593 15.981,-4.8398 l -5.442,-5.5195 c -2.718,2.289 -6.539,3.1367 -10.621,3.1367 -5.269,0 -7.82,-2.207 -7.82,-5.5274 0,-2.9804 1.699,-4.5 5.949,-4.9296 l 6.043,-0.5118 c 8.93,-0.7617 13.598,-4.6679 13.598,-12.2304 0,-9.0078 -7.641,-13.6797 -17.93,-13.6797"
       style="fill:#231f20;fill-opacity:1;fill-rule:nonzero;stroke:none"
       transform="matrix(0.13333333,0,0,-0.13333333,0,65.333333)"
       clip-path="url(#clipPath88)" />
    <path
       id="path89"
       d="m 206.352,27.4297 c -7.051,0 -13.012,1.1914 -18.114,6.1992 l 5.703,5.6914 c 3.481,-3.5703 8.161,-4.5 12.411,-4.5 5.347,0 9.429,1.8711 9.429,5.9492 0,2.9805 -1.609,4.6797 -5.781,5.1016 l -6.879,0.5977 c -8.16,0.7617 -12.75,4.332 -12.75,11.8906 0,8.5 7.231,13.1718 16.231,13.1718 6.539,0 11.976,-1.3593 15.976,-4.8398 l -5.437,-5.5195 c -2.719,2.289 -6.539,3.1367 -10.621,3.1367 -5.27,0 -7.821,-2.207 -7.821,-5.5274 0,-2.9804 1.699,-4.5 5.949,-4.9296 l 6.043,-0.5118 c 8.93,-0.7617 13.598,-4.6679 13.598,-12.2304 0,-9.0078 -7.641,-13.6797 -17.93,-13.6797"
       style="fill:#231f20;fill-opacity:1;fill-rule:nonzero;stroke:none"
       transform="matrix(0.13333333,0,0,-0.13333333,0,65.333333)"
       clip-path="url(#clipPath90)" />
    <path
       id="path91"
       d="M 265.602,80.1992 V 61.7617 h 25.16 v -8.25 h -25.16 v -25.582 h -9.18 v 60.5117 h 38.68 v -8.2422 h -29.493"
       style="fill:#231f20;fill-opacity:1;fill-rule:nonzero;stroke:none"
       transform="matrix(0.13333333,0,0,-0.13333333,0,65.333333)"
       clip-path="url(#clipPath92)" />
    <path
       id="path93"
       d="m 327.219,58.8711 c -1.449,3.2305 -4.418,5.4375 -8.5,5.4375 -4.168,0 -7.141,-2.207 -8.59,-5.4375 -0.848,-1.8711 -1.02,-3.2305 -1.109,-5.8594 h 19.378 c -0.168,2.6289 -0.339,4 -1.187,5.8594 z M 309.031,46.9688 c 0,-7.4805 3.828,-12.0704 10.969,-12.0704 4.84,0 7.391,1.3633 10.449,4.4219 l 5.52,-5.1797 c -4.418,-4.4218 -8.59,-6.7109 -16.149,-6.7109 -10.8,0 -19.379,5.6992 -19.379,22.0898 0,14.0313 7.231,22.0117 18.278,22.0117 11.551,0 18.269,-8.3203 18.269,-20.9101 v -3.6523 h -27.957"
       style="fill:#231f20;fill-opacity:1;fill-rule:nonzero;stroke:none"
       transform="matrix(0.13333333,0,0,-0.13333333,0,65.333333)"
       clip-path="url(#clipPath94)" />
    <path
       id="path95"
       d="m 364.199,63.8008 c -7.91,0 -9.008,-6.6289 -9.008,-14.2813 0,-7.6406 1.098,-14.3593 9.008,-14.3593 7.821,0 8.922,6.7109 8.922,14.3593 0,7.6524 -1.109,14.2813 -8.922,14.2813 z m 9.09,-35.8711 v 4.5898 c -3.23,-3.9101 -6.711,-5.0976 -11.391,-5.0976 -4.339,0 -8.16,1.4375 -10.539,3.8164 -4.168,4.25 -4.839,11.1328 -4.839,18.2734 0,7.0586 0.679,13.9375 4.839,18.1875 2.379,2.3789 6.121,3.8203 10.45,3.8203 4.589,0 8.16,-1.0976 11.3,-4.8398 v 21.7617 h 8.672 V 27.9297 h -8.5"
       style="fill:#231f20;fill-opacity:1;fill-rule:nonzero;stroke:none"
       transform="matrix(0.13333333,0,0,-0.13333333,0,65.333333)"
       clip-path="url(#clipPath96)" />
    <path
       id="path97"
       d="m 420.199,58.8711 c -1.437,3.2305 -4.418,5.4375 -8.488,5.4375 -4.172,0 -7.141,-2.207 -8.59,-5.4375 C 402.27,57 402.102,55.6406 402.012,53.0117 h 19.379 c -0.172,2.6289 -0.34,4 -1.192,5.8594 z M 402.02,46.9688 c 0,-7.4805 3.832,-12.0704 10.968,-12.0704 4.84,0 7.391,1.3633 10.453,4.4219 l 5.52,-5.1797 c -4.422,-4.4218 -8.59,-6.7109 -16.152,-6.7109 -10.797,0 -19.379,5.6992 -19.379,22.0898 0,14.0313 7.23,22.0117 18.281,22.0117 11.551,0 18.269,-8.3203 18.269,-20.9101 v -3.6523 h -27.96"
       style="fill:#231f20;fill-opacity:1;fill-rule:nonzero;stroke:none"
       transform="matrix(0.13333333,0,0,-0.13333333,0,65.333333)"
       clip-path="url(#clipPath98)" />
    <path
       id="path99"
       d="m 465.262,60.9102 c -1.953,1.9492 -3.481,2.8906 -6.461,2.8906 -4.68,0 -8.59,-3.7422 -8.59,-9.6914 V 27.9297 h -8.672 v 43.0898 h 8.5 v -4.6679 c 2.211,3.0586 6.633,5.1796 11.473,5.1796 4.16,0 7.308,-1.1015 10.289,-4.0703 l -6.551,-6.539"
       style="fill:#231f20;fill-opacity:1;fill-rule:nonzero;stroke:none"
       transform="matrix(0.13333333,0,0,-0.13333333,0,65.333333)"
       clip-path="url(#clipPath100)" />
    <path
       id="path101"
       d="m 501.129,46.9688 h -9.949 c -5.27,0 -7.899,-2.2071 -7.899,-6.2071 0,-3.9922 2.457,-6.1211 8.16,-6.1211 3.047,0 5.52,0.3399 7.821,2.461 1.359,1.2695 1.867,3.3203 1.867,6.3672 v 3.4921 z m 0.172,-19.0391 v 3.9101 c -3.153,-3.1406 -6.121,-4.4179 -11.481,-4.4179 -5.359,0 -8.929,1.2695 -11.558,3.9062 -2.211,2.3008 -3.403,5.6133 -3.403,9.2735 0,7.2187 5.02,12.4101 14.961,12.4101 h 11.301 v 3.0469 c 0,5.5312 -2.641,8.082 -9.43,8.082 -4.589,0 -6.972,-1.1914 -9.429,-4.25 l -5.614,5.3477 c 4,4.7617 8.161,6.2929 15.391,6.2929 11.891,0 17.762,-5.1015 17.762,-14.7929 V 27.9297 h -8.5"
       style="fill:#231f20;fill-opacity:1;fill-rule:nonzero;stroke:none"
       transform="matrix(0.13333333,0,0,-0.13333333,0,65.333333)"
       clip-path="url(#clipPath102)" />
    <path
       id="path103"
       d="m 534.789,27.9297 c -8.238,0 -11.809,5.5195 -11.809,11.8984 v 48.6133 h 8.668 V 40.3398 c 0,-3.3203 1.192,-5.0195 4.672,-5.0195 h 3.828 v -7.3906 h -5.359"
       style="fill:#231f20;fill-opacity:1;fill-rule:nonzero;stroke:none"
       transform="matrix(0.13333333,0,0,-0.13333333,0,65.333333)"
       clip-path="url(#clipPath104)" />
    <path
       id="path105"
       d="m 571.254,27.9336 h 9.17969 V 88.4453 H 571.254 Z"
       style="fill:#231f20;fill-opacity:1;fill-rule:nonzero;stroke:none"
       transform="matrix(0.13333333,0,0,-0.13333333,0,65.333333)"
       clip-path="url(#clipPath106)" />
    <path
       id="path107"
       d="m 621.57,27.9297 v 26.2695 c 0,6.711 -3.82,9.6016 -8.66,9.6016 -4.84,0 -8.93,-2.9805 -8.93,-9.6016 V 27.9297 h -8.671 v 43.0898 h 8.5 v -4.3398 c 2.972,3.2305 7.14,4.8398 11.472,4.8398 4.418,0 8.078,-1.4414 10.629,-3.8984 3.32,-3.2305 4.34,-7.3125 4.34,-12.1602 v -27.539 h -8.672"
       style="fill:#231f20;fill-opacity:1;fill-rule:nonzero;stroke:none"
       transform="matrix(0.13333333,0,0,-0.13333333,0,65.333333)"
       clip-path="url(#clipPath108)" />
    <path
       id="path109"
       d="m 657.621,27.4297 c -7.051,0 -13.012,1.1914 -18.109,6.1992 l 5.687,5.6914 c 3.492,-3.5703 8.16,-4.5 12.41,-4.5 5.352,0 9.43,1.8711 9.43,5.9492 0,2.9805 -1.617,4.6797 -5.777,5.1016 l -6.883,0.5977 c -8.16,0.7617 -12.75,4.332 -12.75,11.8906 0,8.5 7.23,13.1718 16.23,13.1718 6.539,0 11.981,-1.3593 15.981,-4.8398 l -5.442,-5.5195 c -2.718,2.289 -6.539,3.1367 -10.617,3.1367 -5.269,0 -7.82,-2.207 -7.82,-5.5274 0,-2.9804 1.699,-4.5 5.949,-4.9296 l 6.039,-0.5118 c 8.93,-0.7617 13.602,-4.6679 13.602,-12.2304 0,-9.0078 -7.653,-13.6797 -17.93,-13.6797"
       style="fill:#231f20;fill-opacity:1;fill-rule:nonzero;stroke:none"
       transform="matrix(0.13333333,0,0,-0.13333333,0,65.333333)"
       clip-path="url(#clipPath110)" />
    <path
       id="path111"
       d="m 698.148,27.9297 c -8.07,0 -11.808,5.7812 -11.808,11.9805 v 24.4804 h -4.93 v 6.6289 h 4.93 v 12.3203 h 8.672 V 71.0195 h 8.328 v -6.6289 h -8.328 V 40.3398 c 0,-3.1484 1.527,-5.0195 4.758,-5.0195 h 3.57 v -7.3906 h -5.192"
       style="fill:#231f20;fill-opacity:1;fill-rule:nonzero;stroke:none"
       transform="matrix(0.13333333,0,0,-0.13333333,0,65.333333)"
       clip-path="url(#clipPath112)" />
    <path
       id="path113"
       d="m 714.48,27.9297 v 43.0898 h 8.668 V 27.9297 Z m -0.261,51.6015 v 9.168 h 9.179 v -9.168 h -9.179"
       style="fill:#231f20;fill-opacity:1;fill-rule:nonzero;stroke:none"
       transform="matrix(0.13333333,0,0,-0.13333333,0,65.333333)"
       clip-path="url(#clipPath114)" />
    <path
       id="path115"
       d="m 749.84,27.9297 c -8.07,0 -11.809,5.7812 -11.809,11.9805 v 24.4804 h -4.929 v 6.6289 h 4.929 v 12.3203 h 8.66 V 71.0195 h 8.329 v -6.6289 h -8.329 V 40.3398 c 0,-3.1484 1.539,-5.0195 4.758,-5.0195 h 3.571 v -7.3906 h -5.18"
       style="fill:#231f20;fill-opacity:1;fill-rule:nonzero;stroke:none"
       transform="matrix(0.13333333,0,0,-0.13333333,0,65.333333)"
       clip-path="url(#clipPath116)" />
    <path
       id="path117"
       d="m 792.16,27.9297 v 4.3398 c -2.98,-3.2304 -7.14,-4.8398 -11.48,-4.8398 -4.418,0 -8.071,1.4414 -10.621,3.9101 -3.309,3.2305 -4.34,7.3086 -4.34,12.1485 v 27.5429 h 8.672 V 44.7695 c 0,-6.7109 3.828,-9.5976 8.668,-9.5976 4.839,0 8.921,2.9765 8.921,9.5976 v 26.2617 h 8.668 V 27.9414 h -8.5"
       style="fill:#231f20;fill-opacity:1;fill-rule:nonzero;stroke:none"
       transform="matrix(0.13333333,0,0,-0.13333333,0,65.333333)"
       clip-path="url(#clipPath118)" />
    <path
       id="path119"
       d="m 827.359,27.9297 c -8.07,0 -11.808,5.7812 -11.808,11.9805 v 24.4804 h -4.93 v 6.6289 h 4.93 v 12.3203 h 8.668 V 71.0195 h 8.332 v -6.6289 h -8.332 V 40.3398 c 0,-3.1484 1.531,-5.0195 4.761,-5.0195 h 3.571 v -7.3906 h -5.18"
       style="fill:#231f20;fill-opacity:1;fill-rule:nonzero;stroke:none"
       transform="matrix(0.13333333,0,0,-0.13333333,0,65.333333)"
       clip-path="url(#clipPath120)" />
    <path
       id="path121"
       d="m 867.809,58.8711 c -1.45,3.2305 -4.418,5.4375 -8.5,5.4375 -4.168,0 -7.137,-2.207 -8.59,-5.4375 -0.848,-1.8711 -1.02,-3.2305 -1.11,-5.8594 h 19.379 c -0.168,2.6289 -0.34,4 -1.187,5.8594 z M 849.621,46.9688 c 0,-7.4805 3.828,-12.0704 10.969,-12.0704 4.84,0 7.39,1.3633 10.449,4.4219 l 5.52,-5.1797 c -4.418,-4.4218 -8.579,-6.7109 -16.149,-6.7109 -10.801,0 -19.379,5.6992 -19.379,22.0898 0,14.0313 7.231,22.0117 18.278,22.0117 11.55,0 18.269,-8.3203 18.269,-20.9101 v -3.6523 h -27.957"
       style="fill:#231f20;fill-opacity:1;fill-rule:nonzero;stroke:none"
       transform="matrix(0.13333333,0,0,-0.13333333,0,65.333333)"
       clip-path="url(#clipPath122)" />
    <path
       id="path123"
       d="m 931.898,61.3398 c -1.609,1.6094 -3.82,2.461 -6.367,2.461 -2.551,0 -4.672,-0.8516 -6.293,-2.461 -2.636,-2.6406 -2.968,-7.1406 -2.968,-11.8203 0,-4.6679 0.339,-9.1797 2.968,-11.8086 1.621,-1.6211 3.742,-2.5507 6.293,-2.5507 2.547,0 4.758,0.9296 6.367,2.5507 2.641,2.6289 2.981,7.1407 2.981,11.8086 0,4.6797 -0.34,9.1797 -2.981,11.8203 z m 6.551,-28.8203 c -2.801,-2.8906 -7.051,-5.0976 -12.918,-5.0976 -5.859,0 -10.031,2.207 -12.832,5.0976 -4.078,4.25 -5.097,9.6914 -5.097,17 0,7.2305 1.019,12.6719 5.097,16.9102 2.801,2.8906 6.973,5.1015 12.832,5.1015 5.86,0 10.11,-2.2109 12.918,-5.1015 4.082,-4.25 5.102,-9.6914 5.102,-16.9102 0,-7.3086 -1.02,-12.75 -5.102,-17"
       style="fill:#231f20;fill-opacity:1;fill-rule:nonzero;stroke:none"
       transform="matrix(0.13333333,0,0,-0.13333333,0,65.333333)"
       clip-path="url(#clipPath124)" />
    <path
       id="path125"
       d="M 965.391,64.3906 V 27.9297 h -8.672 v 36.4609 h -4.93 v 6.6289 h 4.93 v 5.8711 c 0,6.1992 3.742,11.9805 11.82,11.9805 h 5.441 v -7.3906 h -3.82 c -3.23,0 -4.762,-1.8711 -4.762,-5.0196 v -5.4414 h 8.59 v -6.6289 h -8.59"
       style="fill:#231f20;fill-opacity:1;fill-rule:nonzero;stroke:none"
       transform="matrix(0.13333333,0,0,-0.13333333,0,65.333333)"
       clip-path="url(#clipPath126)" />
    <path
       id="path127"
       d="M 1025.32,80.1992 V 27.9297 h -9.18 v 52.2695 h -16.66 v 8.2422 h 42.49 v -8.2422 h -16.65"
       style="fill:#231f20;fill-opacity:1;fill-rule:nonzero;stroke:none"
       transform="matrix(0.13333333,0,0,-0.13333333,0,65.333333)"
       clip-path="url(#clipPath128)" />
    <path
       id="path129"
       d="m 1069.26,58.8711 c -1.44,3.2305 -4.42,5.4375 -8.49,5.4375 -4.17,0 -7.14,-2.207 -8.59,-5.4375 -0.85,-1.8711 -1.02,-3.2305 -1.11,-5.8594 h 19.38 c -0.17,2.6289 -0.34,4 -1.19,5.8594 z m -18.19,-11.9023 c 0,-7.4805 3.83,-12.0704 10.97,-12.0704 4.84,0 7.39,1.3633 10.46,4.4219 l 5.52,-5.1797 c -4.42,-4.4218 -8.59,-6.7109 -16.15,-6.7109 -10.8,0 -19.38,5.6992 -19.38,22.0898 0,14.0313 7.23,22.0117 18.28,22.0117 11.55,0 18.27,-8.3203 18.27,-20.9101 v -3.6523 h -27.97"
       style="fill:#231f20;fill-opacity:1;fill-rule:nonzero;stroke:none"
       transform="matrix(0.13333333,0,0,-0.13333333,0,65.333333)"
       clip-path="url(#clipPath130)" />
    <path
       id="path131"
       d="m 1107.6,27.4297 c -9.69,0 -19.21,5.9492 -19.21,22.0898 0,16.1524 9.52,22.0117 19.21,22.0117 5.95,0 10.11,-1.7031 14.19,-6.0312 l -5.95,-5.7812 c -2.71,2.9726 -4.84,4.082 -8.24,4.082 -3.32,0 -6.12,-1.3594 -7.99,-3.8203 -1.87,-2.3789 -2.55,-5.4414 -2.55,-10.461 0,-5.0078 0.68,-8.1601 2.55,-10.539 1.87,-2.461 4.67,-3.8203 7.99,-3.8203 3.4,0 5.53,1.1093 8.24,4.0781 l 5.95,-5.6875 c -4.08,-4.3399 -8.24,-6.1211 -14.19,-6.1211"
       style="fill:#231f20;fill-opacity:1;fill-rule:nonzero;stroke:none"
       transform="matrix(0.13333333,0,0,-0.13333333,0,65.333333)"
       clip-path="url(#clipPath132)" />
    <path
       id="path133"
       d="m 1158.17,27.9297 v 26.2695 c 0,6.711 -3.82,9.6016 -8.66,9.6016 -4.85,0 -8.93,-2.9805 -8.93,-9.6016 V 27.9297 h -8.67 v 60.5117 h 8.67 V 66.6797 c 2.89,3.2305 6.89,4.8398 11.3,4.8398 4.42,0 8.08,-1.4414 10.63,-3.8984 3.32,-3.2305 4.34,-7.3125 4.34,-12.1602 v -27.539 h -8.68"
       style="fill:#231f20;fill-opacity:1;fill-rule:nonzero;stroke:none"
       transform="matrix(0.13333333,0,0,-0.13333333,0,65.333333)"
       clip-path="url(#clipPath134)" />
    <path
       id="path135"
       d="m 1206.54,27.9297 v 26.2695 c 0,6.711 -3.83,9.6016 -8.67,9.6016 -4.85,0 -8.93,-2.9805 -8.93,-9.6016 V 27.9297 h -8.67 v 43.0898 h 8.5 v -4.3398 c 2.97,3.2305 7.14,4.8398 11.48,4.8398 4.41,0 8.07,-1.4414 10.62,-3.8984 3.31,-3.2305 4.33,-7.3125 4.33,-12.1602 v -27.539 h -8.66"
       style="fill:#231f20;fill-opacity:1;fill-rule:nonzero;stroke:none"
       transform="matrix(0.13333333,0,0,-0.13333333,0,65.333333)"
       clip-path="url(#clipPath136)" />
    <path
       id="path137"
       d="m 1250.9,61.3398 c -1.61,1.6094 -3.82,2.461 -6.38,2.461 -2.55,0 -4.67,-0.8516 -6.29,-2.461 -2.62,-2.6406 -2.97,-7.1406 -2.97,-11.8203 0,-4.6679 0.35,-9.1797 2.97,-11.8086 1.62,-1.6211 3.74,-2.5507 6.29,-2.5507 2.56,0 4.77,0.9296 6.38,2.5507 2.64,2.6289 2.98,7.1407 2.98,11.8086 0,4.6797 -0.34,9.1797 -2.98,11.8203 z m 6.54,-28.8203 c -2.8,-2.8906 -7.05,-5.0976 -12.92,-5.0976 -5.86,0 -10.03,2.207 -12.83,5.0976 -4.07,4.25 -5.1,9.6914 -5.1,17 0,7.2305 1.03,12.6719 5.1,16.9102 2.8,2.8906 6.97,5.1015 12.83,5.1015 5.87,0 10.12,-2.2109 12.92,-5.1015 4.08,-4.25 5.11,-9.6914 5.11,-16.9102 0,-7.3086 -1.03,-12.75 -5.11,-17"
       style="fill:#231f20;fill-opacity:1;fill-rule:nonzero;stroke:none"
       transform="matrix(0.13333333,0,0,-0.13333333,0,65.333333)"
       clip-path="url(#clipPath138)" />
    <path
       id="path139"
       d="m 1285.93,27.9297 c -8.25,0 -11.82,5.5195 -11.82,11.8984 v 48.6133 h 8.67 V 40.3398 c 0,-3.3203 1.18,-5.0195 4.67,-5.0195 h 3.83 v -7.3906 h -5.35"
       style="fill:#231f20;fill-opacity:1;fill-rule:nonzero;stroke:none"
       transform="matrix(0.13333333,0,0,-0.13333333,0,65.333333)"
       clip-path="url(#clipPath140)" />
    <path
       id="path141"
       d="m 1322.3,61.3398 c -1.61,1.6094 -3.81,2.461 -6.37,2.461 -2.55,0 -4.67,-0.8516 -6.29,-2.461 -2.63,-2.6406 -2.97,-7.1406 -2.97,-11.8203 0,-4.6679 0.34,-9.1797 2.97,-11.8086 1.62,-1.6211 3.74,-2.5507 6.29,-2.5507 2.56,0 4.76,0.9296 6.37,2.5507 2.64,2.6289 2.98,7.1407 2.98,11.8086 0,4.6797 -0.34,9.1797 -2.98,11.8203 z m 6.55,-28.8203 c -2.81,-2.8906 -7.05,-5.0976 -12.92,-5.0976 -5.86,0 -10.03,2.207 -12.83,5.0976 -4.08,4.25 -5.1,9.6914 -5.1,17 0,7.2305 1.02,12.6719 5.1,16.9102 2.8,2.8906 6.97,5.1015 12.83,5.1015 5.87,0 10.11,-2.2109 12.92,-5.1015 4.08,-4.25 5.11,-9.6914 5.11,-16.9102 0,-7.3086 -1.03,-12.75 -5.11,-17"
       style="fill:#231f20;fill-opacity:1;fill-rule:nonzero;stroke:none"
       transform="matrix(0.13333333,0,0,-0.13333333,0,65.333333)"
       clip-path="url(#clipPath142)" />
    <path
       id="path143"
       d="m 1361.23,63.8008 c -7.82,0 -8.84,-6.711 -8.84,-13.5117 0,-6.8008 1.02,-13.5196 8.84,-13.5196 7.82,0 8.75,6.711 8.75,13.5196 0,6.8007 -0.93,13.5117 -8.75,13.5117 z M 1360.21,10 c -6.55,0 -10.71,1.5312 -15.21,5.6914 l 5.52,5.5274 c 2.72,-2.5469 5.11,-3.8204 9.35,-3.8204 7.31,0 10.11,5.1797 10.11,10.961 v 5.5195 c -3.14,-3.7383 -6.71,-4.9297 -11.13,-4.9297 -4.34,0 -7.9,1.4492 -10.29,3.8203 -4.16,4.1602 -4.84,10.1993 -4.84,17.5117 0,7.3086 0.68,13.3399 4.84,17.5079 2.39,2.3828 6.04,3.7304 10.38,3.7304 4.59,0 8.07,-1.1797 11.29,-5.0976 v 4.5898 h 8.42 V 28.1719 c 0,-10.543 -6.97,-18.19143 -18.44,-18.19143"
       style="fill:#231f20;fill-opacity:1;fill-rule:nonzero;stroke:none"
       transform="matrix(0.13333333,0,0,-0.13333333,0,65.333333)"
       clip-path="url(#clipPath144)" />
    <path
       id="path145"
       d="m 1406.03,19.3516 c -0.85,-2.3828 -1.88,-4.0821 -3.15,-5.3633 -2.38,-2.3672 -5.53,-3.1367 -8.84,-3.1367 h -3.48 v 7.8203 h 2.2 c 3.66,0 4.94,1.0976 6.2,4.5898 l 2.39,6.7071 -15.04,41.0507 h 9.18 l 10.28,-30.3398 10.03,30.3398 h 9.26 l -19.03,-51.6679"
       style="fill:#231f20;fill-opacity:1;fill-rule:nonzero;stroke:none"
       transform="matrix(0.13333333,0,0,-0.13333333,0,65.333333)"
       clip-path="url(#clipPath146)" />
    <path
       id="path147"
       d="m 1450.05,27.9297 v 7.9101 l 27.96,44.3594 h -26.77 v 8.2422 h 37.56 v -7.4805 l -28.13,-44.789 h 28.13 v -8.2422 h -38.75"
       style="fill:#231f20;fill-opacity:1;fill-rule:nonzero;stroke:none"
       transform="matrix(0.13333333,0,0,-0.13333333,0,65.333333)"
       clip-path="url(#clipPath148)" />
    <path
       id="path149"
       d="m 1525.86,27.9297 v 4.3398 c -2.98,-3.2304 -7.14,-4.8398 -11.48,-4.8398 -4.41,0 -8.07,1.4414 -10.62,3.9101 -3.31,3.2305 -4.34,7.3086 -4.34,12.1485 v 27.5429 h 8.68 V 44.7695 c 0,-6.7109 3.82,-9.5976 8.67,-9.5976 4.84,0 8.92,2.9765 8.92,9.5976 v 26.2617 h 8.67 V 27.9414 h -8.5"
       style="fill:#231f20;fill-opacity:1;fill-rule:nonzero;stroke:none"
       transform="matrix(0.13333333,0,0,-0.13333333,0,65.333333)"
       clip-path="url(#clipPath150)" />
    <path
       id="path151"
       d="m 1571.93,60.9102 c -1.95,1.9492 -3.48,2.8906 -6.45,2.8906 -4.68,0 -8.59,-3.7422 -8.59,-9.6914 V 27.9297 h -8.67 v 43.0898 h 8.5 v -4.6679 c 2.22,3.0586 6.63,5.1796 11.47,5.1796 4.17,0 7.32,-1.1015 10.29,-4.0703 l -6.55,-6.539"
       style="fill:#231f20;fill-opacity:1;fill-rule:nonzero;stroke:none"
       transform="matrix(0.13333333,0,0,-0.13333333,0,65.333333)"
       clip-path="url(#clipPath152)" />
    <path
       id="path153"
       d="m 1585.63,27.9297 v 43.0898 h 8.67 V 27.9297 Z m -0.26,51.6015 v 9.168 h 9.18 v -9.168 h -9.18"
       style="fill:#231f20;fill-opacity:1;fill-rule:nonzero;stroke:none"
       transform="matrix(0.13333333,0,0,-0.13333333,0,65.333333)"
       clip-path="url(#clipPath154)" />
    <path
       id="path155"
       d="m 1625.15,27.4297 c -9.7,0 -19.21,5.9492 -19.21,22.0898 0,16.1524 9.51,22.0117 19.21,22.0117 5.94,0 10.1,-1.7031 14.19,-6.0312 l -5.95,-5.7812 c -2.73,2.9726 -4.85,4.082 -8.24,4.082 -3.32,0 -6.13,-1.3594 -8,-3.8203 -1.87,-2.3789 -2.55,-5.4414 -2.55,-10.461 0,-5.0078 0.68,-8.1601 2.55,-10.539 1.87,-2.461 4.68,-3.8203 8,-3.8203 3.39,0 5.51,1.1093 8.24,4.0781 l 5.95,-5.6875 c -4.09,-4.3399 -8.25,-6.1211 -14.19,-6.1211"
       style="fill:#231f20;fill-opacity:1;fill-rule:nonzero;stroke:none"
       transform="matrix(0.13333333,0,0,-0.13333333,0,65.333333)"
       clip-path="url(#clipPath156)" />
    <path
       id="path157"
       d="m 1675.71,27.9297 v 26.2695 c 0,6.711 -3.82,9.6016 -8.67,9.6016 -4.84,0 -8.91,-2.9805 -8.91,-9.6016 V 27.9297 h -8.68 v 60.5117 h 8.68 V 66.6797 c 2.89,3.2305 6.88,4.8398 11.29,4.8398 4.43,0 8.08,-1.4414 10.63,-3.8984 3.32,-3.2305 4.33,-7.3125 4.33,-12.1602 v -27.539 h -8.67"
       style="fill:#231f20;fill-opacity:1;fill-rule:nonzero;stroke:none"
       transform="matrix(0.13333333,0,0,-0.13333333,0,65.333333)"
       clip-path="url(#clipPath158)" />
    <path
       id="path159"
       d="m 459.531,404.609 h -44.64 l 15.679,76.879 H 51.1289 L 11.2695,283.078 H 162.57 l 9.891,49.602 H 83.1484 l 5.4102,27.289 h 89.3004 l 8.993,44.652 H 97.5195 l 5.4215,27.289 H 244.512 L 214.621,283.09 h 62.02 l 29.879,148.82 h 52.07 L 328.699,283.09 h 62.02 l 15.301,76.879 h 44.64 L 435.352,283.09 h 62.019 l 39.848,198.41 h -62 l -15.68,-76.879"
       style="fill:#231f20;fill-opacity:1;fill-rule:nonzero;stroke:none"
       transform="matrix(0.13333333,0,0,-0.13333333,0,65.333333)"
       clip-path="url(#clipPath160)" />
  </g>
</svg>
